<svg xmlns="http://www.w3.org/2000/svg" width="199.827" height="46.17" viewBox="0 0 199.827 46.17">
  <g id="Layer_1" data-name="Layer 1" transform="translate(0.01 0)">
    <g id="Group_11598" data-name="Group 11598" transform="translate(-0.01 0)">
      <path id="Path_35268" data-name="Path 35268" d="M1552,128.306q-2.913,4.148-5.824,8.3c-.434.62-.431.618-.846.024-1.921-2.753-3.844-5.5-5.883-8.422v.813c0,3.992-.01,7.984.012,11.976,0,.513-.152.629-.638.621-1.706-.027-3.412-.022-5.118,0-.411,0-.586-.061-.585-.536q.024-11,0-22c0-.4.092-.535.516-.529q2.906.034,5.814,0a.83.83,0,0,1,.794.463q2.6,3.984,5.225,7.945c.1.154.22.3.359.483l4.136-6.224c.511-.769,1.027-1.536,1.526-2.314a.7.7,0,0,1,.67-.351q2.971.02,5.94,0c.356,0,.457.1.457.455q-.016,11.061,0,22.124c0,.407-.137.485-.506.481-1.769-.017-3.539-.025-5.307,0-.5.008-.635-.125-.632-.627.022-4.013.011-8.026.011-12.039v-.611l-.126-.032Z" transform="translate(-1358.735 -105.064)" fill="#fefefe"/>
      <path id="Path_35269" data-name="Path 35269" d="M722.9,126.789a11.852,11.852,0,0,1,9.712-12.187,12.6,12.6,0,0,1,11.088,2.788,11.229,11.229,0,0,1,3.9,7.983,11.381,11.381,0,0,1-4.642,10.388,12.577,12.577,0,0,1-9.591,2.4,11.781,11.781,0,0,1-10.1-8.708,10.814,10.814,0,0,1-.371-2.66Zm12.373-6.673a5.562,5.562,0,0,0-3.161.905,6.615,6.615,0,0,0-1.893,8.337,5.7,5.7,0,0,0,8.634,1.952,6.1,6.1,0,0,0,2.242-4.732A5.929,5.929,0,0,0,735.269,120.116Z" transform="translate(-640.66 -101.319)" fill="#fefefe"/>
      <path id="Path_35270" data-name="Path 35270" d="M506.981,130.055c0,3.633-.008,7.267.01,10.9,0,.453-.089.62-.585.611q-2.651-.048-5.305,0c-.5.009-.587-.166-.583-.615.021-2.541,0-5.082.021-7.624,0-.438-.109-.561-.554-.557q-3.726.032-7.454,0c-.412,0-.527.106-.523.521.019,2.563,0,5.124.022,7.687,0,.485-.136.594-.6.586q-2.653-.041-5.305,0c-.438.006-.565-.113-.564-.558q.021-10.995,0-21.99c0-.428.134-.52.536-.515,1.811.019,3.622.025,5.432,0,.445-.007.505.16.5.543-.014,2.5.008,5-.021,7.5-.006.487.138.585.6.58,2.442-.024,4.885-.03,7.326,0,.53.007.6-.18.6-.638-.019-2.436.013-4.873-.025-7.308-.009-.581.173-.688.708-.678,1.725.034,3.453.031,5.179,0,.478-.008.6.125.593.595-.019,3.655-.011,7.309-.011,10.964Z" transform="translate(-430.329 -105.016)" fill="#fefefe"/>
      <path id="Path_35271" data-name="Path 35271" d="M1171.019,126.334a11.714,11.714,0,0,1,9.622-11.79,12.409,12.409,0,0,1,9.974,1.971,12.865,12.865,0,0,1,2.248,2.2c.251.3.172.435-.1.637-1.393,1.05-2.782,2.105-4.155,3.184-.282.221-.414.2-.644-.063a6.159,6.159,0,0,0-3.37-2.193,5.544,5.544,0,0,0-6.868,4.908,7.375,7.375,0,0,0,.61,4.115,5.581,5.581,0,0,0,8.669,1.739,13.516,13.516,0,0,0,1.208-1.2.322.322,0,0,1,.519-.055c1.42,1.013,2.838,2.03,4.28,3.012.411.28.122.447-.021.635a11.827,11.827,0,0,1-10.317,4.788,11.672,11.672,0,0,1-11.466-9.642,9.83,9.83,0,0,1-.191-2.249Z" transform="translate(-1037.813 -101.262)" fill="#fefefe"/>
      <path id="Path_35272" data-name="Path 35272" d="M998.686,127.287v.189q.022,4.213.045,8.426c2.833.157,5.668.025,8.5.067.505.008,1.013.034,1.515-.008.469-.04.6.1.594.58-.034,1.511-.029,3.023,0,4.535.007.427-.132.526-.537.524q-8.019-.017-16.039,0c-.4,0-.536-.089-.535-.52q.022-11.024,0-22.046c0-.384.094-.5.488-.5q2.747.031,5.494,0c.4,0,.484.122.482.5-.016,2.75-.008,5.5-.008,8.251Z" transform="translate(-879.368 -105.056)" fill="#fefefe"/>
      <path id="Path_35273" data-name="Path 35273" d="M1424.182,130.082c0,3.633-.009,7.266.011,10.9,0,.466-.106.606-.588.6-1.789-.031-3.578-.024-5.368,0-.41,0-.529-.1-.528-.524q.021-11.024,0-22.049c0-.388.1-.495.489-.49,1.831.02,3.662.026,5.494,0,.456-.007.5.176.5.548q-.015,5.513-.007,11.024Z" transform="translate(-1256.452 -105.029)" fill="#fefefe"/>
      <g id="Group_11597" data-name="Group 11597">
        <path id="Path_35274" data-name="Path 35274" d="M26.2,182.866c-2.821,0-5.642.007-8.463-.022-.495,0-.587.163-.585.612.017,2.981,0,5.964.017,8.945,0,.469-.122.609-.6.6-2.084-.025-4.169-.03-6.251,0-.572.009-.736-.139-.734-.725.025-5.04.009-10.079.026-15.119,0-.549-.1-.7-.662-.488A13.5,13.5,0,0,0,.986,184.2c-.477,1.076-.628,2.24-1,3.343v3.4c.168.77.311,1.547.508,2.309a12.339,12.339,0,0,0,10.542,9.192,2.924,2.924,0,0,1,1.208.225h1.642c.1-.158.259-.1.4-.118A13.028,13.028,0,0,0,24.246,197a13.3,13.3,0,0,0,2.284-5.974,64.414,64.414,0,0,0,.249-7.67c.01-.477-.223-.488-.577-.488Z" transform="translate(0.01 -156.5)" fill="#fefefe"/>
        <path id="Path_35275" data-name="Path 35275" d="M177.677,12.112A12.893,12.893,0,0,0,172.616,2.8,13.055,13.055,0,0,0,166.288.183a12.562,12.562,0,0,0-7.613,1.085c-4.719,2.228-7.1,6.085-7.558,11.22-.2,2.244-.063,4.491-.135,6.735-.016.482.138.6.6.593q4.2-.034,8.4,0c.524,0,.618-.174.615-.645-.018-2.982,0-5.965-.018-8.947,0-.5.142-.63.634-.623,2.063.028,4.128.04,6.19,0,.6-.01.77.132.768.752-.024,5.062,0,10.123-.015,15.186,0,.49.08.628.58.43a14.463,14.463,0,0,0,4.066-2.294,9.331,9.331,0,0,0,2.331-2.522,12.721,12.721,0,0,0,2.54-9.039Z" transform="translate(-133.806 0)" fill="#fefefe"/>
      </g>
    </g>
  </g>
</svg>
