<?xml version="1.0" encoding="UTF-8"?>
<svg id="Layer_2" data-name="Layer 2" xmlns="http://www.w3.org/2000/svg" viewBox="0 0 451.23 127.55">
  <defs>
    <style>
      .cls-1 {
        fill: #fff;
      }

      .cls-2 {
        fill: none;
        stroke: #231f20;
        stroke-miterlimit: 10;
        stroke-width: .25px;
      }

      .cls-3 {
        fill: #d7f0fc;
      }

      .cls-4 {
        fill: #82161d;
      }

      .cls-5 {
        fill: #231f20;
      }

      .cls-6 {
        fill: #25b34b;
      }
    </style>
  </defs>
  <g id="Layer_1-2" data-name="Layer 1">
    <g>
      <g>
        <g>
          <path class="cls-6" d="M126.83,63.78c0,19.24-8.62,36.48-22.22,48.04-6.94,5.9-15.17,10.33-24.21,12.79-5.3,1.44-10.87,2.22-16.63,2.22C28.95,126.83,.72,98.6,.72,63.78S28.95,.72,63.78,.72s63.05,28.23,63.05,63.05Z"/>
          <path class="cls-5" d="M63.78,127.55c-17.04,0-33.05-6.63-45.1-18.68C6.63,96.83,0,80.81,0,63.78S6.63,30.72,18.68,18.68C30.72,6.63,46.74,0,63.78,0s33.05,6.63,45.1,18.68c12.05,12.05,18.68,28.06,18.68,45.1,0,18.73-8.19,36.44-22.47,48.59-7.09,6.03-15.55,10.5-24.49,12.94-5.45,1.49-11.11,2.24-16.82,2.24ZM63.78,1.45C29.41,1.45,1.45,29.41,1.45,63.78s27.96,62.33,62.33,62.33c5.58,0,11.11-.74,16.44-2.19,8.73-2.38,17.01-6.75,23.93-12.65,13.96-11.87,21.96-29.18,21.96-47.49C126.11,29.41,98.14,1.45,63.78,1.45Z"/>
        </g>
        <path class="cls-3" d="M112.05,64.5s-.06,0-.09,0c-.4-.05-.68-.41-.63-.8,.83-6.96,2.85-25.62,2.31-28.34-.78-3.91-9.48-4.47-12.76-4.36-.4,.02-.73-.3-.75-.7-.01-.4,.3-.73,.7-.75,.53-.02,13.05-.39,14.23,5.52,.7,3.5-2.17,27.77-2.29,28.8-.04,.37-.36,.64-.72,.64Z"/>
        <path class="cls-3" d="M44.84,80.99c-.18,0-.36-.06-.5-.2-.55-.52-13.57-12.77-15.84-15.44-2.57-3.03,5.02-10.7,6.56-12.2,.29-.28,.74-.27,1.02,.01,.28,.29,.27,.74-.01,1.02-3.35,3.26-7.72,8.77-6.47,10.23,2.21,2.6,15.59,15.2,15.73,15.32,.29,.27,.3,.73,.03,1.02-.14,.15-.33,.23-.53,.23Z"/>
        <path class="cls-5" d="M100.35,98.6l4.26,13.21c-6.94,5.9-15.17,10.33-24.21,12.79-4.39-8.24-10.84-32.3-10.84-32.3l.17,12.26s-2.8-8.23-14.35-22.23c-11.55-14-19.32-41.2-17.5-45.49,1.82-4.28,4.26-.3,4.26-.3,4.52,15.35,9.42,21.93,10.06,21.67,.64-.26-4.39-14.06-8.13-23.48-3.74-9.42-3.09-14.58,.76-14.45,3.86,.13,12.14,28.9,13.3,31.99,1.16,3.1,2.84,1.37,2.84,1.37,0,0-10.19-24.97-12-35.55-1.81-10.58,5.03-5.68,6.32-4.77,1.29,.9,14.71,36.25,14.71,36.25l1.55-.52s-10.58-27.87-12.38-34.7c-1.81-6.84,4.37-5.19,5.09-4.38,.73,.82,13.86,30.32,13.86,30.32,0,0,14.94,23.46,17.68,23.47,2.74,0,2.51-6,2.51-6-2.57-8.02-.91-17.7,2.54-18.61,3.45-.91,5.63,10.44,6.8,21.03,1.17,10.59-5.24,20.07-5.24,20.07-8.14,18.37-5.15,31.47-5.15,31.47l3.08-13.13Z"/>
        <path class="cls-1" d="M98.16,60.36s-18.68-19.25-19.77-19.64c0,0-1.93,8.54-5.67,16.53-3.74,7.99-9.43,25.03-5.37,31.89,0,0,2,.84,2-3.37s1.33-10.93,2.34-10.93-2.46,14.58-1.74,18.88c.72,4.3,3.69,3.16,3.92-.8,.22-3.79,1.74-11.75,2-15.37,.02-.25,.24-.43,.48-.41h0c.26,.02,.45,.27,.4,.53-.57,2.97-3.5,18.71-1.63,21.7,2.07,3.31,4.2-1.1,5.03-8.54,.83-7.44,1.65-13.5,2.48-13.37s-3.65,22.48-1.17,22.47c2.48-.01,4.06-6.76,4.48-11.72,.41-4.96,4.97-20.19,7.55-20.18,2.58,0,2.71,2.46,2.19,5.81s4.04,8.64,5.18,4.9c1.14-3.74,.6-14.98-2.7-18.37Z"/>
        <path class="cls-4" d="M84.29,99.43c-8.42,0-17.47-2.68-26.51-7.89-8.36-4.82-13.72-10.03-13.94-10.25-.57-.56-.58-1.47-.02-2.04,.56-.57,1.47-.58,2.04-.02h0c.05,.05,5.36,5.21,13.43,9.85,7.36,4.23,18.59,8.89,30.34,7.06,.79-.12,1.53,.42,1.65,1.21,.12,.79-.42,1.53-1.21,1.65-1.89,.29-3.82,.44-5.78,.44Z"/>
        <path class="cls-4" d="M58.4,123.5c-1.74,0-3.44-.21-5.07-.62-4.16-1.05-7.58-3.33-10.13-6.17-8.58-.68-15.72-5.07-20.76-12.8-4.1-6.28-5.34-12.49-5.39-12.75-.15-.78,.36-1.54,1.14-1.7,.78-.15,1.54,.36,1.7,1.14,.02,.12,1.23,6.02,5.03,11.8,4.06,6.19,9.39,9.9,15.9,11.09-1.93-3.19-2.94-6.73-2.88-9.95,.1-5.14,2.84-8.79,7.35-9.75,4.04-.87,8.48,1.06,11.58,5.01,3.04,3.89,3.87,8.49,2.15,12.02-1.23,2.53-4.25,5.51-11.62,5.93,1.86,1.51,4.09,2.68,6.64,3.33,8.51,2.16,16.78-2.66,20.94-5.72,6.4-4.7,11.57-11.31,13.48-17.23l.2-.63,.61-.26c.05-.02,5.49-2.36,10.82-7.54,7.06-6.87,10.6-15.25,10.51-24.91,0-.8,.63-1.45,1.43-1.46h.01c.79,0,1.44,.64,1.44,1.43,.11,13.09-6.17,21.95-11.47,27.08-4.7,4.55-9.38,7-11.02,7.78-2.23,6.31-7.66,13.18-14.32,18.06-6.1,4.48-12.43,6.81-18.29,6.81Zm-13.84-9.61c.34,.01,.67,.02,1.02,.02,5.7,0,9.44-1.51,10.83-4.36,1.21-2.48,.49-6-1.83-8.97-1.89-2.41-5.17-4.73-8.7-3.97-4.31,.92-5.02,4.77-5.06,6.98-.06,3.37,1.26,7.15,3.75,10.3Z"/>
        <path class="cls-4" d="M40.48,50.45c0,1.04-.64,1.95-1.51,2.52-3.73,2.43-5.65,.51-2.9-3.01,.64-.82,1.5-1.38,2.54-1.38s1.88,.84,1.88,1.88Z"/>
        <path class="cls-4" d="M95.61,30.64c.46-.93,1.44-1.46,2.47-1.58,4.42-.52,5.29,2.06,1.26,3.99-.93,.45-1.96,.57-2.89,.11-.93-.46-1.31-1.59-.85-2.51Z"/>
      </g>
      <g>
        <path class="cls-5" d="M143.89,15.04c.04-.4,.45-.72,.81-.72h.72c.22,0,.63,.18,.76,.45l10.39,19.34h.09l10.39-19.34c.13-.27,.54-.45,.76-.45h.72c.36,0,.76,.31,.81,.72l5.06,30.08c.09,.58-.31,.99-.85,.99h-5.28c-.4,0-.81-.36-.85-.72l-2.01-13.83h-.09l-7.52,14.5c-.13,.27-.54,.49-.76,.49h-.81c-.27,0-.63-.22-.76-.49l-7.57-14.5h-.09l-1.97,13.83c-.04,.36-.4,.72-.85,.72h-5.28c-.54,0-.94-.4-.85-.99l5.06-30.08Z"/>
        <path class="cls-5" d="M177.28,44.36c2.6-3.4,9.22-12.4,11.86-16.43,.58-.89,1.16-2.15,1.16-3.4,0-1.7-1.43-3.22-3.94-3.22-1.84,0-3.49,1.3-4.34,2.24-.36,.36-.9,.36-1.25,0l-2.73-2.78c-.31-.27-.36-.81-.04-1.16,0,0,3.63-4.39,8.95-4.39,6.4,0,10.16,4.07,10.16,9.04,0,2.37-.67,3.72-1.75,5.82-1.43,2.55-5.1,7.34-7.21,10.3h7.88c.45,0,.85,.4,.85,.85v4.03c0,.45-.4,.85-.85,.85h-17.91c-.49,0-.85-.4-.85-.85v-.9Z"/>
        <path class="cls-5" d="M200.3,44.36c2.6-3.4,9.22-12.4,11.86-16.43,.58-.89,1.16-2.15,1.16-3.4,0-1.7-1.43-3.22-3.94-3.22-1.84,0-3.49,1.3-4.34,2.24-.36,.36-.9,.36-1.25,0l-2.73-2.78c-.31-.27-.36-.81-.04-1.16,0,0,3.63-4.39,8.95-4.39,6.4,0,10.16,4.07,10.16,9.04,0,2.37-.67,3.72-1.75,5.82-1.43,2.55-5.1,7.34-7.21,10.3h7.88c.45,0,.85,.4,.85,.85v4.03c0,.45-.4,.85-.85,.85h-17.91c-.49,0-.85-.4-.85-.85v-.9Z"/>
        <path class="cls-5" d="M236.02,15.62c0-.45,.36-.85,.81-.85h10.92c8.64,0,15.71,7.03,15.71,15.62s-7.07,15.71-15.71,15.71h-10.92c-.45,0-.81-.4-.81-.85V15.62Zm11.28,23.86c5.06,0,8.73-3.98,8.73-9.09s-3.67-9.04-8.73-9.04h-4.3v18.13h4.3Z"/>
        <path class="cls-5" d="M282.72,14.32c8.95,0,16.12,7.21,16.12,16.16s-7.16,16.07-16.12,16.07-16.07-7.12-16.07-16.07,7.12-16.16,16.07-16.16Zm0,25.07c4.92,0,8.95-4.03,8.95-8.91s-4.03-9-8.95-9-8.91,4.07-8.91,9,4.03,8.91,8.91,8.91Z"/>
        <path class="cls-5" d="M318.13,14.32c4.48,0,7.79,1.39,10.83,4.16,.4,.36,.4,.9,.04,1.25l-3.49,3.63c-.31,.31-.81,.31-1.12,0-1.66-1.48-3.85-2.28-6.04-2.28-5.06,0-8.77,4.21-8.77,9.22s3.76,9.09,8.82,9.09c2.1,0,4.39-.76,6-2.15,.31-.27,.9-.27,1.16,.04l3.49,3.72c.31,.31,.27,.9-.04,1.21-3.04,2.95-6.89,4.34-10.88,4.34-8.95,0-16.16-7.12-16.16-16.07s7.21-16.16,16.16-16.16Z"/>
        <path class="cls-5" d="M338.41,21.35h-6.4c-.49,0-.85-.4-.85-.85v-4.88c0-.45,.36-.85,.85-.85h19.88c.49,0,.85,.4,.85,.85v4.88c0,.45-.36,.85-.85,.85h-6.4v23.91c0,.45-.4,.85-.85,.85h-5.37c-.45,0-.85-.4-.85-.85V21.35Z"/>
        <path class="cls-5" d="M370.82,14.32c8.95,0,16.12,7.21,16.12,16.16s-7.16,16.07-16.12,16.07-16.07-7.12-16.07-16.07,7.12-16.16,16.07-16.16Zm0,25.07c4.92,0,8.95-4.03,8.95-8.91s-4.03-9-8.95-9-8.91,4.07-8.91,9,4.03,8.91,8.91,8.91Z"/>
        <path class="cls-5" d="M392.36,15.62c0-.45,.36-.85,.85-.85h13.39c5.37,0,9.76,4.34,9.76,9.67,0,4.12-2.73,7.43-6.63,9l6.13,11.37c.31,.58,0,1.3-.76,1.3h-5.95c-.36,0-.63-.22-.72-.4l-5.95-11.86h-3.09v11.42c0,.45-.4,.85-.85,.85h-5.33c-.49,0-.85-.4-.85-.85V15.62Zm13.65,12.54c1.83,0,3.4-1.7,3.4-3.58s-1.57-3.4-3.4-3.4h-6.63v6.98h6.63Z"/>
        <path class="cls-5" d="M420.56,41.85l2.1-3.72c.36-.58,1.21-.49,1.52-.27,.18,.09,3.4,2.46,6.36,2.46,1.79,0,3.09-1.12,3.09-2.69,0-1.88-1.57-3.31-4.61-4.52-3.85-1.52-8.68-4.52-8.68-9.89,0-4.43,3.45-8.91,10.34-8.91,4.66,0,8.24,2.37,9.58,3.36,.54,.31,.45,1.12,.27,1.43l-2.28,3.45c-.31,.49-1.12,.9-1.52,.58-.4-.22-3.67-2.69-6.4-2.69-1.61,0-2.82,1.07-2.82,2.28,0,1.66,1.34,2.91,4.88,4.34,3.49,1.39,9.04,4.12,9.04,10.21,0,4.61-3.98,9.27-10.57,9.27-5.82,0-9.04-2.42-10.07-3.45-.45-.45-.58-.63-.22-1.25Z"/>
        <path class="cls-5" d="M445.41,26.77c-.31-.36-.22-.76,.04-.98,.49-.36,3.13-2.33,3.18-5.37,0,0-.76,.31-1.79,.31-1.75,0-3.22-1.39-3.22-3.18s1.48-3.22,3.54-3.22c1.7,0,4.07,1.3,4.07,5.19,0,4.7-3.13,7.16-4.16,8.01-.31,.22-.63,.31-.99-.09l-.67-.67Z"/>
      </g>
      <g>
        <path class="cls-5" d="M139.11,60.23c0-.45,.36-.85,.85-.85h18.53c.49,0,.85,.4,.85,.85v4.88c0,.45-.36,.85-.85,.85h-12.4v6.45h10.21c.45,0,.85,.4,.85,.85v4.88c0,.45-.4,.85-.85,.85h-10.21v10.88c0,.45-.4,.85-.85,.85h-5.28c-.49,0-.85-.4-.85-.85v-29.64Z"/>
        <path class="cls-5" d="M180.35,58.93c8.95,0,16.12,7.21,16.12,16.16s-7.16,16.07-16.12,16.07-16.07-7.12-16.07-16.07,7.12-16.16,16.07-16.16Zm0,25.07c4.92,0,8.95-4.03,8.95-8.91s-4.03-9-8.95-9-8.91,4.07-8.91,9,4.03,8.91,8.91,8.91Z"/>
        <path class="cls-5" d="M203.67,60.23c0-.45,.4-.85,.85-.85h5.51c.49,0,.85,.4,.85,.85v18.13c0,3.13,2.33,5.64,5.51,5.64s5.6-2.51,5.6-5.64v-18.13c0-.45,.36-.85,.85-.85h5.51c.45,0,.85,.4,.85,.85v18.49c0,6.8-5.73,12.45-12.8,12.45s-12.71-5.64-12.71-12.45v-18.49Z"/>
        <path class="cls-5" d="M238.59,59.74c0-.45,.4-.81,.85-.81h1.12l17.86,17.19h.04v-15.89c0-.45,.36-.85,.85-.85h5.37c.45,0,.85,.4,.85,.85v30.13c0,.45-.4,.81-.85,.81h-.72c-.13,0-.49-.13-.58-.22l-17.68-17.77h-.04v16.7c0,.45-.36,.85-.85,.85h-5.33c-.45,0-.85-.4-.85-.85l-.04-30.13Z"/>
        <path class="cls-5" d="M275.48,60.23c0-.45,.36-.85,.81-.85h10.92c8.64,0,15.71,7.03,15.71,15.62s-7.07,15.71-15.71,15.71h-10.92c-.45,0-.81-.4-.81-.85v-29.64Zm11.28,23.86c5.06,0,8.73-3.98,8.73-9.09s-3.67-9.04-8.73-9.04h-4.3v18.13h4.3Z"/>
        <path class="cls-5" d="M306.28,89.55l14.01-30.13c.13-.27,.45-.49,.76-.49h.45c.31,0,.63,.22,.76,.49l14.01,30.13c.27,.58-.09,1.16-.76,1.16h-4.97c-.81,0-1.16-.27-1.57-1.12l-1.61-3.54h-12.18l-1.61,3.58c-.22,.54-.72,1.07-1.61,1.07h-4.92c-.67,0-1.03-.58-.76-1.16Zm18.4-9.58l-3.4-7.39h-.04l-3.36,7.39h6.8Z"/>
        <path class="cls-5" d="M344.61,65.96h-6.4c-.49,0-.85-.4-.85-.85v-4.88c0-.45,.36-.85,.85-.85h19.88c.49,0,.85,.4,.85,.85v4.88c0,.45-.36,.85-.85,.85h-6.4v23.91c0,.45-.4,.85-.85,.85h-5.37c-.45,0-.85-.4-.85-.85v-23.91Z"/>
        <path class="cls-5" d="M365.65,60.23c0-.45,.4-.85,.85-.85h5.37c.45,0,.85,.4,.85,.85v29.64c0,.45-.4,.85-.85,.85h-5.37c-.45,0-.85-.4-.85-.85v-29.64Z"/>
        <path class="cls-5" d="M396.45,58.93c8.95,0,16.12,7.21,16.12,16.16s-7.16,16.07-16.12,16.07-16.07-7.12-16.07-16.07,7.12-16.16,16.07-16.16Zm0,25.07c4.92,0,8.95-4.03,8.95-8.91s-4.03-9-8.95-9-8.91,4.07-8.91,9,4.03,8.91,8.91,8.91Z"/>
        <path class="cls-5" d="M420.18,59.74c0-.45,.4-.81,.85-.81h1.12l17.86,17.19h.04v-15.89c0-.45,.36-.85,.85-.85h5.37c.45,0,.85,.4,.85,.85v30.13c0,.45-.4,.81-.85,.81h-.72c-.13,0-.49-.13-.58-.22l-17.68-17.77h-.04v16.7c0,.45-.36,.85-.85,.85h-5.33c-.45,0-.85-.4-.85-.85l-.04-30.13Z"/>
      </g>
      <g>
        <g>
          <path class="cls-5" d="M139.23,111.21c-.48-.21-.85-.51-1.12-.89-.27-.38-.41-.82-.42-1.31h1.27c.04,.43,.22,.79,.53,1.08,.31,.29,.76,.44,1.35,.44s1.01-.14,1.34-.42,.49-.65,.49-1.09c0-.35-.1-.63-.29-.85-.19-.22-.43-.38-.72-.5-.29-.11-.67-.23-1.16-.37-.6-.16-1.08-.31-1.44-.47-.36-.16-.67-.4-.93-.74-.26-.33-.38-.79-.38-1.35,0-.5,.13-.94,.38-1.32,.25-.38,.61-.68,1.07-.89,.46-.21,.98-.31,1.58-.31,.85,0,1.55,.21,2.1,.64,.54,.43,.85,.99,.92,1.7h-1.31c-.04-.35-.23-.66-.55-.92s-.75-.4-1.28-.4c-.5,0-.9,.13-1.22,.39-.31,.26-.47,.62-.47,1.08,0,.33,.09,.6,.28,.81s.42,.37,.69,.48c.27,.11,.66,.23,1.16,.37,.6,.17,1.08,.33,1.45,.49s.68,.41,.94,.75c.26,.33,.39,.79,.39,1.37,0,.44-.12,.86-.35,1.25-.24,.39-.58,.71-1.05,.95s-1.01,.37-1.63,.37-1.14-.11-1.61-.32Z"/>
          <path class="cls-5" d="M146.85,102.32v5.76c0,.81,.2,1.41,.59,1.8,.4,.39,.95,.59,1.65,.59s1.24-.2,1.64-.59c.4-.39,.59-.99,.59-1.8v-5.76h1.19v5.75c0,.76-.15,1.4-.46,1.92s-.72,.9-1.24,1.16c-.52,.25-1.1,.38-1.75,.38s-1.23-.13-1.75-.38c-.52-.25-.93-.64-1.23-1.16s-.45-1.16-.45-1.92v-5.75h1.19Z"/>
          <path class="cls-5" d="M155.85,111.21c-.48-.21-.85-.51-1.12-.89-.27-.38-.41-.82-.42-1.31h1.27c.04,.43,.22,.79,.53,1.08,.31,.29,.76,.44,1.35,.44s1.01-.14,1.34-.42,.49-.65,.49-1.09c0-.35-.1-.63-.29-.85-.19-.22-.43-.38-.72-.5-.29-.11-.67-.23-1.16-.37-.6-.16-1.08-.31-1.44-.47-.36-.16-.67-.4-.93-.74-.26-.33-.38-.79-.38-1.35,0-.5,.13-.94,.38-1.32,.25-.38,.61-.68,1.07-.89,.46-.21,.98-.31,1.58-.31,.85,0,1.55,.21,2.1,.64,.54,.43,.85,.99,.92,1.7h-1.31c-.04-.35-.23-.66-.55-.92s-.75-.4-1.28-.4c-.5,0-.9,.13-1.22,.39-.31,.26-.47,.62-.47,1.08,0,.33,.09,.6,.28,.81s.42,.37,.69,.48c.27,.11,.66,.23,1.16,.37,.6,.17,1.08,.33,1.45,.49s.68,.41,.94,.75c.26,.33,.39,.79,.39,1.37,0,.44-.12,.86-.35,1.25-.24,.39-.58,.71-1.05,.95s-1.01,.37-1.63,.37-1.14-.11-1.61-.32Z"/>
          <path class="cls-5" d="M167.93,102.32v.97h-2.48v8.14h-1.19v-8.14h-2.5v-.97h6.17Z"/>
          <path class="cls-5" d="M174.84,109.41h-3.97l-.73,2.03h-1.25l3.29-9.06h1.37l3.28,9.06h-1.25l-.73-2.03Zm-.34-.97l-1.65-4.6-1.65,4.6h3.29Z"/>
          <path class="cls-5" d="M179.52,102.32v9.11h-1.19v-9.11h1.19Z"/>
          <path class="cls-5" d="M188.78,111.44h-1.19l-4.78-7.25v7.25h-1.19v-9.12h1.19l4.78,7.24v-7.24h1.19v9.12Z"/>
          <path class="cls-5" d="M196.25,109.41h-3.97l-.73,2.03h-1.25l3.29-9.06h1.37l3.28,9.06h-1.25l-.73-2.03Zm-.34-.97l-1.65-4.6-1.65,4.6h3.29Z"/>
          <path class="cls-5" d="M205.22,107.15c.27,.22,.49,.49,.65,.81,.16,.32,.24,.67,.24,1.03,0,.46-.12,.88-.35,1.25-.24,.37-.58,.66-1.03,.88-.45,.21-.98,.32-1.59,.32h-3.4v-9.11h3.27c.62,0,1.15,.1,1.58,.31,.44,.2,.76,.48,.98,.83s.33,.74,.33,1.18c0,.54-.15,.99-.44,1.34-.29,.35-.68,.61-1.16,.76,.33,.05,.63,.19,.91,.41Zm-4.28-.89h2c.56,0,.99-.13,1.29-.39,.3-.26,.46-.62,.46-1.08s-.15-.82-.46-1.08c-.3-.26-.75-.39-1.32-.39h-1.97v2.95Zm3.49,3.78c.33-.28,.5-.67,.5-1.16s-.17-.9-.52-1.2-.81-.44-1.4-.44h-2.07v3.22h2.1c.59,0,1.05-.14,1.39-.42Z"/>
          <path class="cls-5" d="M209.01,110.47h3.19v.97h-4.38v-9.11h1.19v8.14Z"/>
          <path class="cls-5" d="M214.73,103.29v3.04h3.32v.98h-3.32v3.14h3.71v.98h-4.9v-9.12h4.9v.98h-3.71Z"/>
          <path class="cls-5" d="M224.02,104.48c.4-.71,.95-1.27,1.64-1.67,.69-.4,1.46-.6,2.31-.6,.99,0,1.86,.24,2.6,.72,.74,.48,1.28,1.16,1.62,2.04h-1.43c-.25-.55-.62-.97-1.09-1.27-.48-.3-1.04-.45-1.71-.45s-1.21,.15-1.71,.45c-.5,.3-.9,.72-1.19,1.26-.29,.54-.43,1.18-.43,1.92s.14,1.36,.43,1.9c.29,.54,.68,.96,1.19,1.26,.51,.3,1.08,.44,1.71,.44s1.23-.15,1.71-.44c.47-.29,.84-.71,1.09-1.26h1.43c-.34,.87-.88,1.54-1.62,2.02-.74,.47-1.61,.71-2.6,.71-.85,0-1.61-.2-2.31-.59-.69-.4-1.24-.95-1.64-1.65-.4-.71-.6-1.5-.6-2.39s.2-1.69,.6-2.4Z"/>
          <path class="cls-5" d="M235.84,110.93c-.7-.4-1.25-.95-1.65-1.66-.41-.71-.61-1.51-.61-2.4s.2-1.69,.61-2.4,.96-1.26,1.65-1.66,1.47-.59,2.31-.59,1.63,.2,2.33,.59,1.25,.95,1.65,1.65c.4,.71,.6,1.51,.6,2.41s-.2,1.7-.6,2.41c-.4,.71-.95,1.26-1.65,1.65s-1.47,.59-2.33,.59-1.62-.2-2.31-.59Zm4.03-.88c.51-.3,.91-.72,1.2-1.27,.29-.55,.44-1.19,.44-1.91s-.15-1.37-.44-1.92c-.29-.54-.69-.96-1.2-1.26-.51-.3-1.08-.45-1.73-.45s-1.22,.15-1.73,.45c-.51,.3-.9,.72-1.2,1.26-.29,.54-.44,1.18-.44,1.92s.15,1.36,.44,1.91c.29,.55,.69,.97,1.2,1.27,.51,.3,1.08,.44,1.72,.44s1.21-.15,1.72-.44Z"/>
          <path class="cls-5" d="M253.6,102.39v9.05h-1.19v-6.75l-3.01,6.75h-.84l-3.02-6.76v6.76h-1.19v-9.05h1.28l3.35,7.48,3.35-7.48h1.27Z"/>
          <path class="cls-5" d="M264.92,102.39v9.05h-1.19v-6.75l-3.01,6.75h-.84l-3.02-6.76v6.76h-1.19v-9.05h1.28l3.35,7.48,3.35-7.48h1.27Z"/>
          <path class="cls-5" d="M268.16,102.32v5.76c0,.81,.2,1.41,.59,1.8,.4,.39,.95,.59,1.65,.59s1.24-.2,1.64-.59c.4-.39,.59-.99,.59-1.8v-5.76h1.19v5.75c0,.76-.15,1.4-.46,1.92s-.72,.9-1.24,1.16c-.52,.25-1.1,.38-1.75,.38s-1.23-.13-1.75-.38c-.52-.25-.93-.64-1.23-1.16s-.45-1.16-.45-1.92v-5.75h1.19Z"/>
          <path class="cls-5" d="M283.05,111.44h-1.19l-4.78-7.25v7.25h-1.19v-9.12h1.19l4.78,7.24v-7.24h1.19v9.12Z"/>
          <path class="cls-5" d="M286.34,102.32v9.11h-1.19v-9.11h1.19Z"/>
          <path class="cls-5" d="M294.03,102.32v.97h-2.48v8.14h-1.19v-8.14h-2.5v-.97h6.17Z"/>
          <path class="cls-5" d="M301.94,102.32l-2.97,5.67v3.44h-1.19v-3.44l-2.98-5.67h1.32l2.25,4.61,2.25-4.61h1.32Z"/>
          <path class="cls-5" d="M318.27,102.32l-2.64,9.11h-1.33l-2.12-7.33-2.2,7.33h-1.32s-2.55-9.11-2.55-9.11h1.27l1.99,7.73,2.2-7.73h1.33l2.09,7.7,2-7.7h1.28Z"/>
          <path class="cls-5" d="M320.83,103.29v3.04h3.32v.98h-3.32v3.14h3.71v.98h-4.9v-9.12h4.9v.98h-3.71Z"/>
          <path class="cls-5" d="M327.6,110.47h3.19v.97h-4.38v-9.11h1.19v8.14Z"/>
          <path class="cls-5" d="M337.28,102.32v.97h-3.96v3.07h3.22v.97h-3.22v4.1h-1.19v-9.11h5.15Z"/>
          <path class="cls-5" d="M344.17,109.41h-3.97l-.73,2.03h-1.25l3.29-9.06h1.37l3.28,9.06h-1.25l-.73-2.03Zm-.34-.97l-1.65-4.6-1.65,4.6h3.29Z"/>
          <path class="cls-5" d="M352.45,111.44l-2.17-3.73h-1.44v3.73h-1.19v-9.11h2.94c.69,0,1.27,.12,1.75,.35,.47,.24,.83,.55,1.07,.96,.23,.4,.35,.86,.35,1.37,0,.63-.18,1.18-.54,1.66-.36,.48-.9,.8-1.63,.95l2.29,3.82h-1.42Zm-3.61-4.68h1.75c.64,0,1.13-.16,1.45-.48,.32-.32,.48-.74,.48-1.27s-.16-.96-.48-1.25c-.32-.3-.8-.44-1.46-.44h-1.75v3.45Z"/>
          <path class="cls-5" d="M356.86,103.29v3.04h3.32v.98h-3.32v3.14h3.71v.98h-4.9v-9.12h4.9v.98h-3.71Z"/>
        </g>
        <g>
          <path class="cls-5" d="M380.76,103.29v3.04h3.32v.98h-3.32v3.14h3.71v.98h-4.9v-9.12h4.9v.98h-3.71Z"/>
          <path class="cls-5" d="M387.62,111.21c-.48-.21-.85-.51-1.12-.89-.27-.38-.41-.82-.42-1.31h1.27c.04,.43,.22,.79,.53,1.08,.31,.29,.76,.44,1.35,.44s1.01-.14,1.34-.42,.49-.65,.49-1.09c0-.35-.1-.63-.29-.85-.19-.22-.43-.38-.72-.5-.29-.11-.67-.23-1.16-.37-.6-.16-1.08-.31-1.44-.47-.36-.16-.67-.4-.93-.74-.26-.33-.38-.79-.38-1.35,0-.5,.13-.94,.38-1.32,.25-.38,.61-.68,1.07-.89,.46-.21,.98-.31,1.58-.31,.85,0,1.55,.21,2.1,.64,.54,.43,.85,.99,.92,1.7h-1.31c-.04-.35-.23-.66-.55-.92s-.75-.4-1.28-.4c-.5,0-.9,.13-1.22,.39-.31,.26-.47,.62-.47,1.08,0,.33,.09,.6,.28,.81s.42,.37,.69,.48c.27,.11,.66,.23,1.16,.37,.6,.17,1.08,.33,1.45,.49s.68,.41,.94,.75c.26,.33,.39,.79,.39,1.37,0,.44-.12,.86-.35,1.25-.24,.39-.58,.71-1.05,.95s-1.01,.37-1.63,.37-1.14-.11-1.61-.32Z"/>
          <path class="cls-5" d="M399.69,102.32v.97h-2.48v8.14h-1.19v-8.14h-2.5v-.97h6.17Z"/>
          <path class="cls-5" d="M406.64,102.88c.73,.37,1.29,.9,1.67,1.59,.39,.69,.58,1.5,.58,2.43s-.19,1.74-.58,2.42c-.39,.68-.95,1.21-1.67,1.57-.73,.36-1.59,.54-2.58,.54h-2.84v-9.11h2.84c.99,0,1.85,.19,2.58,.56Zm.11,6.64c.62-.62,.93-1.5,.93-2.62s-.31-2.02-.93-2.65c-.62-.64-1.52-.95-2.69-.95h-1.65v7.16h1.65c1.18,0,2.07-.31,2.69-.93Z"/>
          <path class="cls-5" d="M410.33,105.68c-.16-.16-.24-.35-.24-.58s.08-.42,.24-.58c.16-.16,.35-.24,.58-.24s.4,.08,.56,.24c.15,.16,.23,.35,.23,.58s-.08,.42-.23,.58c-.15,.16-.34,.24-.56,.24s-.42-.08-.58-.24Zm0,5.59c-.16-.16-.24-.35-.24-.58s.08-.42,.24-.58c.16-.16,.35-.24,.58-.24s.4,.08,.56,.24c.15,.16,.23,.35,.23,.58s-.08,.42-.23,.58c-.15,.16-.34,.24-.56,.24s-.42-.08-.58-.24Z"/>
          <path class="cls-5" d="M419.19,108.29c.63-.57,1.16-1.17,1.59-1.79s.65-1.24,.65-1.84c0-.57-.14-1.01-.41-1.34s-.72-.49-1.33-.49-1.05,.19-1.38,.56-.5,.87-.53,1.48h-1.15c.03-.98,.33-1.73,.89-2.26,.56-.53,1.28-.8,2.16-.8s1.61,.25,2.14,.75,.79,1.18,.79,2.05c0,.72-.22,1.43-.65,2.11-.43,.68-.92,1.29-1.47,1.8-.55,.52-1.25,1.12-2.1,1.81h4.5v.99h-6.29v-.85c1.11-.89,1.97-1.62,2.6-2.19Z"/>
          <path class="cls-5" d="M425.05,103.1c.49-.84,1.34-1.26,2.56-1.26s2.06,.42,2.55,1.26c.49,.84,.73,2.01,.73,3.51s-.24,2.71-.73,3.56c-.49,.84-1.34,1.27-2.55,1.27s-2.07-.42-2.56-1.27c-.49-.85-.73-2.03-.73-3.56s.24-2.67,.73-3.51Zm4.52,1.58c-.1-.53-.3-.95-.61-1.27s-.76-.48-1.34-.48-1.04,.16-1.35,.48c-.31,.32-.51,.75-.61,1.27-.1,.53-.15,1.17-.15,1.93s.05,1.44,.15,1.97c.1,.53,.3,.96,.61,1.28,.31,.32,.76,.48,1.35,.48s1.03-.16,1.34-.48,.51-.75,.61-1.28c.1-.53,.15-1.19,.15-1.97s-.05-1.4-.15-1.93Z"/>
          <path class="cls-5" d="M435.05,108.29c.63-.57,1.16-1.17,1.59-1.79s.65-1.24,.65-1.84c0-.57-.14-1.01-.41-1.34s-.72-.49-1.33-.49-1.05,.19-1.38,.56-.5,.87-.53,1.48h-1.15c.03-.98,.33-1.73,.89-2.26,.56-.53,1.28-.8,2.16-.8s1.61,.25,2.14,.75,.79,1.18,.79,2.05c0,.72-.22,1.43-.65,2.11-.43,.68-.92,1.29-1.47,1.8-.55,.52-1.25,1.12-2.1,1.81h4.5v.99h-6.29v-.85c1.11-.89,1.97-1.62,2.6-2.19Z"/>
          <path class="cls-5" d="M441.08,102.48c.56-.45,1.28-.68,2.17-.68,.59,0,1.1,.11,1.54,.32,.43,.21,.76,.5,.98,.87,.22,.37,.33,.78,.33,1.24,0,.54-.16,1.01-.46,1.4-.31,.39-.71,.64-1.21,.76v.07c.57,.14,1.02,.41,1.35,.82,.33,.41,.5,.95,.5,1.61,0,.5-.11,.94-.34,1.34s-.57,.71-1.02,.93-1,.34-1.63,.34c-.92,0-1.68-.24-2.27-.73s-.92-1.17-.99-2.06h1.15c.06,.52,.27,.95,.64,1.28s.85,.5,1.46,.5,1.07-.16,1.39-.48c.32-.32,.48-.73,.48-1.24,0-.65-.22-1.12-.65-1.41-.44-.29-1.09-.43-1.97-.43h-.3v-.99h.31c.8,0,1.41-.14,1.82-.4,.41-.26,.61-.66,.61-1.2,0-.46-.15-.83-.45-1.11-.3-.28-.73-.42-1.29-.42s-.98,.14-1.31,.42c-.33,.28-.53,.65-.59,1.12h-1.16c.06-.8,.37-1.43,.93-1.88Z"/>
        </g>
        <line class="cls-2" x1="369.92" y1="100.62" x2="369.92" y2="111.53"/>
      </g>
    </g>
  </g>
</svg>