<?xml version="1.0" encoding="UTF-8"?>
<svg id="Layer_2" data-name="Layer 2" xmlns="http://www.w3.org/2000/svg" viewBox="0 0 410.73 99.47">
  <defs>
    <style>
      .cls-1 {
        fill: #fff;
      }

      .cls-2 {
        fill: #d7f0fc;
      }

      .cls-3 {
        fill: #82161d;
      }

      .cls-4 {
        fill: none;
        stroke: #000;
        stroke-miterlimit: 10;
        stroke-width: .25px;
      }

      .cls-5 {
        fill: #231f20;
      }

      .cls-6 {
        fill: #25b34b;
      }
    </style>
  </defs>
  <g id="Layer_2-2" data-name="Layer 2">
    <g>
      <g>
        <g>
          <path class="cls-6" d="M98.9,49.74c0,15-6.72,28.45-17.33,37.46-5.41,4.6-11.83,8.06-18.88,9.97-4.13,1.12-8.48,1.73-12.97,1.73C22.58,98.9,.56,76.89,.56,49.74S22.58,.56,49.74,.56s49.17,22.01,49.17,49.17h0Z"/>
          <path class="cls-5" d="M49.74,99.47c-13.29,0-25.77-5.17-35.17-14.57C5.17,75.51,0,63.02,0,49.74S5.17,23.96,14.57,14.57C23.96,5.17,36.45,0,49.74,0s25.77,5.17,35.17,14.57c9.4,9.4,14.57,21.88,14.57,35.17,0,14.61-6.39,28.42-17.52,37.89-5.53,4.7-12.13,8.19-19.1,10.09-4.25,1.16-8.66,1.75-13.12,1.75ZM49.74,1.13C22.93,1.13,1.13,22.93,1.13,49.74s21.8,48.61,48.61,48.61c4.35,0,8.66-.58,12.82-1.71,6.81-1.86,13.26-5.26,18.66-9.86,10.89-9.26,17.12-22.76,17.12-37.03C98.34,22.93,76.53,1.13,49.74,1.13Z"/>
        </g>
        <path class="cls-2" d="M87.38,50.3h-.07c-.31-.04-.53-.32-.49-.62,.65-5.43,2.22-19.98,1.8-22.1-.61-3.05-7.39-3.49-9.95-3.4-.31,.02-.57-.23-.58-.55,0-.31,.23-.57,.55-.58,.41-.02,10.18-.3,11.1,4.3,.55,2.73-1.69,21.66-1.79,22.46-.03,.29-.28,.5-.56,.5h0Z"/>
        <path class="cls-2" d="M34.97,63.16c-.14,0-.28-.05-.39-.16-.43-.41-10.58-9.96-12.35-12.04-2-2.36,3.91-8.34,5.12-9.51,.23-.22,.58-.21,.8,0,.22,.23,.21,.58,0,.8-2.61,2.54-6.02,6.84-5.05,7.98,1.72,2.03,12.16,11.85,12.27,11.95,.23,.21,.23,.57,.02,.8-.11,.12-.26,.18-.41,.18h0Z"/>
        <path class="cls-5" d="M78.26,76.89l3.32,10.3c-5.41,4.6-11.83,8.06-18.88,9.97-3.42-6.43-8.45-25.19-8.45-25.19l.13,9.56s-2.18-6.42-11.19-17.34c-9.01-10.92-15.07-32.13-13.65-35.47,1.42-3.34,3.32-.23,3.32-.23,3.52,11.97,7.35,17.1,7.85,16.9,.5-.2-3.42-10.96-6.34-18.31-2.92-7.35-2.41-11.37,.59-11.27,3.01,.1,9.47,22.54,10.37,24.95,.9,2.42,2.21,1.07,2.21,1.07,0,0-7.95-19.47-9.36-27.72s3.92-4.43,4.93-3.72c1.01,.7,11.47,28.27,11.47,28.27l1.21-.41s-8.25-21.73-9.65-27.06c-1.41-5.33,3.41-4.05,3.97-3.42,.57,.64,10.81,23.64,10.81,23.64,0,0,11.65,18.29,13.79,18.3,2.14,0,1.96-4.68,1.96-4.68-2-6.25-.71-13.8,1.98-14.51,2.69-.71,4.39,8.14,5.3,16.4,.91,8.26-4.09,15.65-4.09,15.65-6.35,14.33-4.02,24.54-4.02,24.54l2.4-10.24h0Z"/>
        <path class="cls-1" d="M76.55,47.07s-14.57-15.01-15.42-15.32c0,0-1.51,6.66-4.42,12.89s-7.35,19.52-4.19,24.87c0,0,1.56,.66,1.56-2.63s1.04-8.52,1.82-8.52-1.92,11.37-1.36,14.72c.56,3.35,2.88,2.46,3.06-.62,.17-2.96,1.36-9.16,1.56-11.99,.02-.19,.19-.34,.37-.32h0c.2,.02,.35,.21,.31,.41-.44,2.32-2.73,14.59-1.27,16.92,1.61,2.58,3.28-.86,3.92-6.66s1.29-10.53,1.93-10.43-2.85,17.53-.91,17.52c1.93,0,3.17-5.27,3.49-9.14,.32-3.87,3.88-15.74,5.89-15.74,2.01,0,2.11,1.92,1.71,4.53s3.15,6.74,4.04,3.82,.47-11.68-2.11-14.33h0Z"/>
        <path class="cls-3" d="M65.73,77.54c-6.57,0-13.62-2.09-20.67-6.15-6.52-3.76-10.7-7.82-10.87-7.99-.44-.44-.45-1.15-.02-1.59s1.15-.45,1.59-.02h0s4.18,4.06,10.47,7.68c5.74,3.3,14.5,6.93,23.66,5.51,.62-.09,1.19,.33,1.29,.94s-.33,1.19-.94,1.29c-1.47,.23-2.98,.34-4.51,.34h0Z"/>
        <path class="cls-3" d="M45.54,96.31c-1.36,0-2.68-.16-3.95-.48-3.24-.82-5.91-2.6-7.9-4.81-6.69-.53-12.26-3.95-16.19-9.98-3.2-4.9-4.16-9.74-4.2-9.94-.12-.61,.28-1.2,.89-1.33,.61-.12,1.2,.28,1.33,.89,.02,.09,.96,4.69,3.92,9.2,3.17,4.83,7.32,7.72,12.4,8.65-1.51-2.49-2.29-5.25-2.25-7.76,.08-4.01,2.21-6.85,5.73-7.6,3.15-.68,6.61,.83,9.03,3.91,2.37,3.03,3.02,6.62,1.68,9.37-.96,1.97-3.31,4.3-9.06,4.62,1.45,1.18,3.19,2.09,5.18,2.6,6.64,1.68,13.09-2.07,16.33-4.46,4.99-3.67,9.02-8.82,10.51-13.44l.16-.49,.48-.2s4.28-1.84,8.44-5.88c5.51-5.36,8.27-11.89,8.2-19.43,0-.62,.49-1.13,1.12-1.14h0c.62,0,1.12,.5,1.12,1.12,.09,10.21-4.81,17.12-8.94,21.12-3.67,3.55-7.31,5.46-8.59,6.07-1.74,4.92-5.97,10.28-11.17,14.08-4.76,3.49-9.69,5.31-14.26,5.31h.02Zm-10.79-7.49c.27,0,.52,.02,.8,.02,4.44,0,7.36-1.18,8.45-3.4,.94-1.93,.38-4.68-1.43-7-1.47-1.88-4.03-3.69-6.78-3.1-3.36,.72-3.91,3.72-3.95,5.44-.05,2.63,.98,5.58,2.92,8.03h0Z"/>
        <path class="cls-3" d="M31.57,39.34c0,.81-.5,1.52-1.18,1.97-2.91,1.89-4.41,.4-2.26-2.35,.5-.64,1.17-1.08,1.98-1.08s1.47,.66,1.47,1.47h0Z"/>
        <path class="cls-3" d="M74.56,23.89c.36-.73,1.12-1.14,1.93-1.23,3.45-.41,4.13,1.61,.98,3.11-.73,.35-1.53,.44-2.25,.09s-1.02-1.24-.66-1.96h0Z"/>
      </g>
      <g>
        <path class="cls-5" d="M111.06,8.71c.04-.39,.44-.7,.79-.7h.7c.21,0,.61,.18,.74,.44l10.13,18.86h.09l10.13-18.86c.13-.26,.53-.44,.74-.44h.7c.35,0,.74,.3,.79,.7l4.93,29.33c.09,.57-.3,.97-.83,.97h-5.15c-.39,0-.79-.35-.83-.7l-1.96-13.48h-.09l-7.33,14.14c-.13,.26-.53,.48-.74,.48h-.79c-.26,0-.61-.21-.74-.48l-7.38-14.14h-.09l-1.92,13.48c-.04,.35-.39,.7-.83,.7h-5.15c-.53,0-.92-.39-.83-.97l4.93-29.33h-.03Z"/>
        <path class="cls-5" d="M143.62,37.3c2.54-3.32,8.99-12.09,11.56-16.02,.57-.87,1.13-2.1,1.13-3.32,0-1.66-1.39-3.14-3.84-3.14-1.79,0-3.4,1.27-4.23,2.18-.35,.35-.88,.35-1.22,0l-2.66-2.71c-.3-.26-.35-.79-.04-1.13,0,0,3.54-4.28,8.73-4.28,6.24,0,9.91,3.97,9.91,8.81,0,2.31-.65,3.63-1.71,5.67-1.39,2.49-4.97,7.16-7.03,10.04h7.68c.44,0,.83,.39,.83,.83v3.93c0,.44-.39,.83-.83,.83h-17.46c-.48,0-.83-.39-.83-.83v-.88h0Z"/>
        <path class="cls-5" d="M166.06,37.3c2.54-3.32,8.99-12.09,11.56-16.02,.57-.87,1.13-2.1,1.13-3.32,0-1.66-1.39-3.14-3.84-3.14-1.79,0-3.4,1.27-4.23,2.18-.35,.35-.88,.35-1.22,0l-2.66-2.71c-.3-.26-.35-.79-.04-1.13,0,0,3.54-4.28,8.73-4.28,6.24,0,9.91,3.97,9.91,8.81,0,2.31-.65,3.63-1.71,5.67-1.39,2.49-4.97,7.16-7.03,10.04h7.68c.44,0,.83,.39,.83,.83v3.93c0,.44-.39,.83-.83,.83h-17.46c-.48,0-.83-.39-.83-.83v-.88h0Z"/>
        <path class="cls-5" d="M200.89,9.28c0-.44,.35-.83,.79-.83h10.65c8.42,0,15.32,6.85,15.32,15.23s-6.89,15.32-15.32,15.32h-10.65c-.44,0-.79-.39-.79-.83V9.28h0Zm11,23.26c4.93,0,8.51-3.88,8.51-8.86s-3.58-8.81-8.51-8.81h-4.19v17.68h4.19Z"/>
        <path class="cls-5" d="M246.43,8.01c8.73,0,15.72,7.03,15.72,15.76s-6.98,15.67-15.72,15.67-15.67-6.94-15.67-15.67,6.94-15.76,15.67-15.76Zm0,24.44c4.8,0,8.73-3.93,8.73-8.69s-3.93-8.78-8.73-8.78-8.69,3.97-8.69,8.78,3.93,8.69,8.69,8.69Z"/>
        <path class="cls-5" d="M280.95,8.01c4.37,0,7.6,1.36,10.56,4.06,.39,.35,.39,.88,.04,1.22l-3.4,3.54c-.3,.3-.79,.3-1.09,0-1.62-1.44-3.75-2.22-5.89-2.22-4.93,0-8.55,4.1-8.55,8.99s3.67,8.86,8.6,8.86c2.05,0,4.28-.74,5.85-2.1,.3-.26,.88-.26,1.13,.04l3.4,3.63c.3,.3,.26,.88-.04,1.18-2.96,2.88-6.72,4.23-10.61,4.23-8.73,0-15.76-6.94-15.76-15.67s7.03-15.76,15.76-15.76Z"/>
        <path class="cls-5" d="M300.73,14.86h-6.24c-.48,0-.83-.39-.83-.83v-4.76c0-.44,.35-.83,.83-.83h19.38c.48,0,.83,.39,.83,.83v4.76c0,.44-.35,.83-.83,.83h-6.24v23.31c0,.44-.39,.83-.83,.83h-5.24c-.44,0-.83-.39-.83-.83V14.86h0Z"/>
        <path class="cls-5" d="M332.33,8.01c8.73,0,15.72,7.03,15.72,15.76s-6.98,15.67-15.72,15.67-15.67-6.94-15.67-15.67,6.94-15.76,15.67-15.76Zm0,24.44c4.8,0,8.73-3.93,8.73-8.69s-3.93-8.78-8.73-8.78-8.69,3.97-8.69,8.78,3.93,8.69,8.69,8.69Z"/>
        <path class="cls-5" d="M353.33,9.28c0-.44,.35-.83,.83-.83h13.06c5.24,0,9.52,4.23,9.52,9.43,0,4.02-2.66,7.24-6.46,8.78l5.98,11.09c.3,.57,0,1.27-.74,1.27h-5.8c-.35,0-.61-.21-.7-.39l-5.8-11.56h-3.01v11.13c0,.44-.39,.83-.83,.83h-5.2c-.48,0-.83-.39-.83-.83V9.28Zm13.31,12.23c1.78,0,3.32-1.66,3.32-3.49s-1.53-3.32-3.32-3.32h-6.46v6.81h6.46Z"/>
        <path class="cls-5" d="M380.83,34.85l2.05-3.63c.35-.57,1.18-.48,1.48-.26,.18,.09,3.32,2.4,6.2,2.4,1.75,0,3.01-1.09,3.01-2.62,0-1.83-1.53-3.23-4.49-4.41-3.75-1.48-8.46-4.41-8.46-9.64,0-4.32,3.36-8.69,10.08-8.69,4.54,0,8.03,2.31,9.34,3.28,.53,.3,.44,1.09,.26,1.39l-2.22,3.36c-.3,.48-1.09,.88-1.48,.57-.39-.21-3.58-2.62-6.24-2.62-1.57,0-2.75,1.04-2.75,2.22,0,1.62,1.31,2.84,4.76,4.23,3.4,1.36,8.81,4.02,8.81,9.96,0,4.49-3.88,9.04-10.31,9.04-5.67,0-8.81-2.36-9.82-3.36-.44-.44-.57-.61-.21-1.22h0Z"/>
        <path class="cls-5" d="M405.06,20.15c-.3-.35-.21-.74,.04-.96,.48-.35,3.05-2.27,3.1-5.24,0,0-.74,.3-1.75,.3-1.71,0-3.14-1.36-3.14-3.1s1.44-3.14,3.45-3.14c1.66,0,3.97,1.27,3.97,5.06,0,4.58-3.05,6.98-4.06,7.81-.3,.21-.61,.3-.97-.09l-.65-.65Z"/>
      </g>
      <g>
        <path class="cls-5" d="M106.4,47.2c0-.44,.35-.83,.83-.83h18.07c.48,0,.83,.39,.83,.83v4.76c0,.44-.35,.83-.83,.83h-12.09v6.29h9.96c.44,0,.83,.39,.83,.83v4.76c0,.44-.39,.83-.83,.83h-9.96v10.61c0,.44-.39,.83-.83,.83h-5.15c-.48,0-.83-.39-.83-.83v-28.9h0Z"/>
        <path class="cls-5" d="M146.61,45.93c8.73,0,15.72,7.03,15.72,15.76s-6.98,15.67-15.72,15.67-15.67-6.94-15.67-15.67,6.94-15.76,15.67-15.76Zm0,24.44c4.8,0,8.73-3.93,8.73-8.69s-3.93-8.78-8.73-8.78-8.69,3.97-8.69,8.78,3.93,8.69,8.69,8.69Z"/>
        <path class="cls-5" d="M169.35,47.2c0-.44,.39-.83,.83-.83h5.37c.48,0,.83,.39,.83,.83v17.68c0,3.05,2.27,5.5,5.37,5.5s5.46-2.45,5.46-5.5v-17.68c0-.44,.35-.83,.83-.83h5.37c.44,0,.83,.39,.83,.83v18.03c0,6.63-5.59,12.14-12.48,12.14s-12.39-5.5-12.39-12.14v-18.03h-.02Z"/>
        <path class="cls-5" d="M203.4,46.72c0-.44,.39-.79,.83-.79h1.09l17.41,16.76h.04v-15.49c0-.44,.35-.83,.83-.83h5.24c.44,0,.83,.39,.83,.83v29.38c0,.44-.39,.79-.83,.79h-.7c-.13,0-.48-.13-.57-.21l-17.24-17.33h-.04v16.28c0,.44-.35,.83-.83,.83h-5.2c-.44,0-.83-.39-.83-.83l-.04-29.38h0Z"/>
        <path class="cls-5" d="M239.37,47.2c0-.44,.35-.83,.79-.83h10.65c8.42,0,15.32,6.85,15.32,15.23s-6.89,15.32-15.32,15.32h-10.65c-.44,0-.79-.39-.79-.83v-28.9h0Zm11,23.27c4.93,0,8.51-3.88,8.51-8.86s-3.58-8.81-8.51-8.81h-4.19v17.68h4.19Z"/>
        <path class="cls-5" d="M269.4,75.79l13.66-29.38c.13-.26,.44-.48,.74-.48h.44c.3,0,.61,.21,.74,.48l13.66,29.38c.26,.57-.09,1.13-.74,1.13h-4.85c-.79,0-1.13-.26-1.53-1.09l-1.57-3.45h-11.88l-1.57,3.49c-.21,.53-.7,1.04-1.57,1.04h-4.8c-.65,0-1-.57-.74-1.13h0Zm17.94-9.33l-3.32-7.21h-.04l-3.28,7.21h6.63Z"/>
        <path class="cls-5" d="M306.77,52.79h-6.24c-.48,0-.83-.39-.83-.83v-4.76c0-.44,.35-.83,.83-.83h19.38c.48,0,.83,.39,.83,.83v4.76c0,.44-.35,.83-.83,.83h-6.24v23.31c0,.44-.39,.83-.83,.83h-5.24c-.44,0-.83-.39-.83-.83v-23.31h0Z"/>
        <path class="cls-5" d="M327.29,47.2c0-.44,.39-.83,.83-.83h5.24c.44,0,.83,.39,.83,.83v28.9c0,.44-.39,.83-.83,.83h-5.24c-.44,0-.83-.39-.83-.83v-28.9Z"/>
        <path class="cls-5" d="M357.32,45.93c8.73,0,15.72,7.03,15.72,15.76s-6.98,15.67-15.72,15.67-15.67-6.94-15.67-15.67,6.94-15.76,15.67-15.76Zm0,24.44c4.8,0,8.73-3.93,8.73-8.69s-3.93-8.78-8.73-8.78-8.69,3.97-8.69,8.78,3.93,8.69,8.69,8.69Z"/>
        <path class="cls-5" d="M380.46,46.72c0-.44,.39-.79,.83-.79h1.09l17.41,16.76h.04v-15.49c0-.44,.35-.83,.83-.83h5.24c.44,0,.83,.39,.83,.83v29.38c0,.44-.39,.79-.83,.79h-.7c-.13,0-.48-.13-.57-.21l-17.24-17.33h-.04v16.28c0,.44-.35,.83-.83,.83h-5.2c-.44,0-.83-.39-.83-.83l-.04-29.38h0Z"/>
      </g>
      <g>
        <path d="M106.5,93.17c.56,.29,1.42,.58,2.3,.58,.95,0,1.46-.4,1.46-1.02s-.44-.92-1.54-1.32c-1.53-.54-2.52-1.41-2.52-2.77,0-1.6,1.31-2.83,3.47-2.83,1.04,0,1.8,.22,2.34,.47l-.46,1.71c-.37-.18-1.02-.45-1.92-.45s-1.34,.42-1.34,.91c0,.6,.52,.86,1.7,1.32,1.62,.61,2.38,1.48,2.38,2.8,0,1.57-1.19,2.91-3.71,2.91-1.05,0-2.08-.28-2.6-.57l.42-1.75Z"/>
        <path d="M123.05,93.17c.56,.29,1.42,.58,2.3,.58,.95,0,1.46-.4,1.46-1.02s-.44-.92-1.54-1.32c-1.53-.54-2.52-1.41-2.52-2.77,0-1.6,1.31-2.83,3.47-2.83,1.04,0,1.8,.22,2.34,.47l-.46,1.71c-.37-.18-1.02-.45-1.92-.45s-1.34,.42-1.34,.91c0,.6,.52,.86,1.7,1.32,1.62,.61,2.38,1.48,2.38,2.8,0,1.57-1.19,2.91-3.71,2.91-1.05,0-2.08-.28-2.6-.57l.42-1.75Z"/>
        <path d="M115.86,85.97v5.4c0,1.62,.6,2.44,1.66,2.44s1.69-.78,1.69-2.44v-5.4h2.07v5.26c0,2.9-1.43,4.28-3.83,4.28s-3.68-1.31-3.68-4.3v-5.24h2.08Z"/>
        <path d="M132.76,87.76h-2.47v-1.78h7.06v1.78h-2.51v7.6h-2.08v-7.6Z"/>
        <path d="M139.61,92.95l-.65,2.41h-2.15l2.81-9.39h2.73l2.85,9.39h-2.23l-.71-2.41h-2.63Zm2.33-1.59l-.57-1.99c-.16-.56-.33-1.25-.46-1.81h-.03c-.14,.56-.27,1.27-.42,1.81l-.55,1.99h2.03Z"/>
        <path d="M148.49,85.97v9.39h-2.08v-9.39h2.08Z"/>
        <path d="M150.29,95.36v-9.39h2.43l1.91,3.44c.55,.99,1.09,2.16,1.5,3.22h.04c-.14-1.24-.18-2.51-.18-3.91v-2.74h1.91v9.39h-2.18l-1.96-3.62c-.55-1-1.14-2.21-1.59-3.31h-.04c.05,1.25,.08,2.58,.08,4.11v2.83h-1.91Z"/>
        <path d="M161.83,92.95l-.65,2.41h-2.15l2.81-9.39h2.73l2.85,9.39h-2.23l-.71-2.41h-2.63Zm2.33-1.59l-.57-1.99c-.16-.56-.33-1.25-.46-1.81h-.03c-.14,.56-.27,1.27-.42,1.81l-.55,1.99h2.03Z"/>
        <path d="M168.62,86.1c.55-.11,1.65-.19,2.68-.19,1.27,0,2.04,.13,2.71,.53,.64,.35,1.1,.99,1.1,1.84s-.48,1.62-1.51,2.01v.03c1.05,.29,1.83,1.1,1.83,2.31,0,.85-.38,1.52-.95,1.99-.67,.54-1.79,.85-3.61,.85-1.02,0-1.79-.07-2.25-.14v-9.22Zm2.06,3.59h.68c1.09,0,1.68-.46,1.68-1.16s-.53-1.09-1.47-1.09c-.45,0-.71,.03-.89,.06v2.19Zm0,4.16c.2,.03,.45,.03,.8,.03,.94,0,1.77-.36,1.77-1.35s-.83-1.32-1.87-1.32h-.71v2.65Z"/>
        <path d="M176.85,85.97h2.08v7.6h3.65v1.78h-5.74v-9.39Z"/>
        <path d="M189.27,91.39h-3.38v2.23h3.77v1.74h-5.86v-9.39h5.67v1.74h-3.58v1.95h3.38v1.73Z"/>
        <path d="M200.58,95.1c-.38,.19-1.24,.4-2.36,.4-3.18,0-4.81-2.02-4.81-4.69,0-3.2,2.23-4.99,5.01-4.99,1.08,0,1.89,.22,2.26,.42l-.42,1.68c-.42-.18-1.01-.35-1.74-.35-1.65,0-2.93,1.02-2.93,3.1,0,1.88,1.09,3.06,2.94,3.06,.63,0,1.32-.14,1.73-.31l.31,1.66Z"/>
        <path d="M209.94,90.57c0,3.08-1.83,4.94-4.51,4.94s-4.32-2.1-4.32-4.78c0-2.81,1.76-4.92,4.47-4.92s4.36,2.16,4.36,4.75Zm-6.64,.13c0,1.84,.84,3.13,2.23,3.13s2.21-1.36,2.21-3.19c0-1.69-.79-3.13-2.22-3.13s-2.22,1.36-2.22,3.19Z"/>
        <path d="M219.06,91.77c-.04-1.13-.08-2.49-.08-3.86h-.04c-.29,1.2-.67,2.53-1.02,3.63l-1.12,3.66h-1.62l-.98-3.63c-.3-1.1-.61-2.44-.83-3.66h-.03c-.05,1.27-.1,2.72-.16,3.89l-.16,3.57h-1.92l.59-9.39h2.77l.9,3.13c.29,1.09,.57,2.26,.78,3.36h.04c.26-1.09,.57-2.33,.87-3.37l.98-3.12h2.71l.5,9.39h-2.03l-.14-3.59Z"/>
        <path d="M230.58,91.77c-.04-1.13-.08-2.49-.08-3.86h-.04c-.29,1.2-.67,2.53-1.02,3.63l-1.12,3.66h-1.62l-.98-3.63c-.3-1.1-.61-2.44-.83-3.66h-.03c-.05,1.27-.1,2.72-.16,3.89l-.16,3.57h-1.92l.59-9.39h2.77l.9,3.13c.29,1.09,.57,2.26,.78,3.36h.04c.26-1.09,.57-2.33,.87-3.37l.98-3.12h2.71l.5,9.39h-2.03l-.14-3.59Z"/>
        <path d="M236.41,85.97v5.4c0,1.62,.6,2.44,1.66,2.44s1.69-.78,1.69-2.44v-5.4h2.07v5.26c0,2.9-1.43,4.28-3.83,4.28s-3.68-1.31-3.68-4.3v-5.24h2.08Z"/>
        <path d="M243.63,95.36v-9.39h2.43l1.91,3.44c.55,.99,1.09,2.16,1.5,3.22h.04c-.14-1.24-.18-2.51-.18-3.91v-2.74h1.91v9.39h-2.18l-1.96-3.62c-.55-1-1.14-2.21-1.59-3.31h-.04c.05,1.25,.08,2.58,.08,4.11v2.83h-1.91Z"/>
        <path d="M255.11,85.97v9.39h-2.09v-9.39h2.09Z"/>
        <path d="M258.68,87.76h-2.47v-1.78h7.06v1.78h-2.51v7.6h-2.09v-7.6Z"/>
        <path d="M266.59,95.36v-3.84l-2.9-5.54h2.37l.94,2.26c.29,.68,.48,1.18,.71,1.8h.03c.2-.59,.42-1.13,.69-1.8l.93-2.26h2.33l-3.03,5.47v3.91h-2.07Z"/>
        <path d="M276.92,95.36l-2.18-9.39h2.22l.69,3.87c.2,1.11,.4,2.33,.55,3.27h.03c.15-1.02,.37-2.15,.6-3.3l.78-3.84h2.21l.74,3.95c.2,1.1,.35,2.1,.49,3.15h.03c.14-1.04,.34-2.14,.53-3.26l.75-3.84h2.11l-2.37,9.39h-2.25l-.78-4.04c-.18-.95-.33-1.82-.44-2.9h-.03c-.16,1.06-.31,1.95-.53,2.9l-.87,4.04h-2.28Z"/>
        <path d="M292.99,91.39h-3.38v2.23h3.77v1.74h-5.86v-9.39h5.67v1.74h-3.58v1.95h3.38v1.73Z"/>
        <path d="M294.8,85.97h2.08v7.6h3.65v1.78h-5.74v-9.39Z"/>
        <path d="M301.76,85.97h5.61v1.74h-3.53v2.14h3.3v1.73h-3.3v3.77h-2.09v-9.39Z"/>
        <path d="M310.16,92.95l-.65,2.41h-2.15l2.81-9.39h2.73l2.85,9.39h-2.23l-.71-2.41h-2.63Zm2.33-1.59l-.57-1.99c-.16-.56-.33-1.25-.46-1.81h-.03c-.14,.56-.27,1.27-.42,1.81l-.55,1.99h2.03Z"/>
        <path d="M316.96,86.1c.67-.11,1.66-.19,2.77-.19,1.36,0,2.32,.21,2.97,.74,.55,.45,.84,1.1,.84,1.96,0,1.2-.83,2.02-1.62,2.31v.04c.64,.26,1,.89,1.23,1.76,.29,1.06,.57,2.28,.75,2.65h-2.13c-.15-.26-.37-1.03-.64-2.19-.25-1.17-.64-1.49-1.48-1.5h-.63v3.69h-2.06v-9.26Zm2.06,4.04h.82c1.04,0,1.65-.53,1.65-1.35,0-.86-.57-1.3-1.53-1.31-.5,0-.79,.04-.94,.07v2.59Z"/>
        <path d="M330.5,91.39h-3.38v2.23h3.78v1.74h-5.86v-9.39h5.67v1.74h-3.58v1.95h3.38v1.73Z"/>
        <path d="M346.03,91.39h-3.38v2.23h3.78v1.74h-5.86v-9.39h5.67v1.74h-3.58v1.95h3.38v1.73Z"/>
        <path d="M347.9,93.17c.56,.29,1.42,.58,2.3,.58,.95,0,1.46-.4,1.46-1.02s-.44-.92-1.54-1.32c-1.53-.54-2.52-1.41-2.52-2.77,0-1.6,1.31-2.83,3.47-2.83,1.04,0,1.8,.22,2.34,.47l-.46,1.71c-.37-.18-1.02-.45-1.92-.45s-1.34,.42-1.34,.91c0,.6,.52,.86,1.7,1.32,1.62,.61,2.38,1.48,2.38,2.8,0,1.57-1.19,2.91-3.71,2.91-1.05,0-2.08-.28-2.6-.57l.42-1.75Z"/>
        <path d="M356.96,87.76h-2.47v-1.78h7.06v1.78h-2.51v7.6h-2.09v-7.6Z"/>
        <path d="M362.65,86.1c.76-.13,1.76-.19,2.81-.19,1.74,0,2.87,.32,3.76,1,.95,.72,1.55,1.88,1.55,3.54,0,1.8-.64,3.04-1.53,3.8-.97,.82-2.44,1.21-4.24,1.21-1.08,0-1.84-.07-2.36-.14v-9.22Zm2.08,7.66c.18,.04,.46,.04,.72,.04,1.88,.01,3.11-1.04,3.11-3.29,.01-1.95-1.1-2.98-2.89-2.98-.46,0-.76,.04-.94,.08v6.14Z"/>
        <path d="M371.92,89.75c0-.75,.5-1.28,1.23-1.28s1.2,.51,1.21,1.28c0,.72-.49,1.27-1.23,1.27s-1.21-.54-1.21-1.27Zm0,4.5c0-.74,.5-1.28,1.23-1.28s1.2,.53,1.21,1.28c0,.72-.49,1.27-1.23,1.27s-1.21-.54-1.21-1.27Z"/>
        <path d="M378.1,95.36v-1.28l1.14-1.06c1.94-1.77,2.87-2.79,2.9-3.84,0-.74-.44-1.32-1.46-1.32-.76,0-1.43,.39-1.89,.75l-.59-1.52c.67-.52,1.7-.93,2.9-.93,2,0,3.11,1.2,3.11,2.84,0,1.52-1.08,2.73-2.36,3.9l-.82,.7v.03h3.34v1.74h-6.28Z"/>
        <path d="M392.2,90.79c0,2.8-1.1,4.72-3.37,4.72s-3.3-2.1-3.31-4.67c0-2.62,1.09-4.69,3.38-4.69s3.3,2.16,3.3,4.64Zm-4.59,.06c-.01,2.08,.48,3.06,1.28,3.06s1.24-1.03,1.24-3.09-.42-3.06-1.25-3.06c-.76,0-1.28,.99-1.27,3.09Z"/>
        <path d="M393.22,95.36v-1.28l1.14-1.06c1.94-1.77,2.88-2.79,2.9-3.84,0-.74-.44-1.32-1.46-1.32-.76,0-1.43,.39-1.89,.75l-.59-1.52c.67-.52,1.7-.93,2.9-.93,2,0,3.11,1.2,3.11,2.84,0,1.52-1.08,2.73-2.36,3.9l-.82,.7v.03h3.34v1.74h-6.28Z"/>
        <path d="M401.14,93.29c.37,.19,1.21,.56,2.06,.56,1.08,0,1.62-.53,1.62-1.21,0-.89-.87-1.3-1.79-1.3h-.84v-1.52h.8c.7-.01,1.58-.28,1.58-1.04,0-.54-.44-.95-1.31-.95-.72,0-1.48,.32-1.85,.54l-.42-1.53c.53-.35,1.59-.68,2.74-.68,1.89,0,2.94,1.02,2.94,2.26,0,.96-.53,1.71-1.62,2.1v.03c1.06,.19,1.92,1.02,1.92,2.2,0,1.6-1.38,2.77-3.62,2.77-1.14,0-2.11-.31-2.63-.64l.42-1.59Z"/>
        <line class="cls-4" x1="335.78" y1="84.27" x2="335.78" y2="97.11"/>
      </g>
    </g>
  </g>
</svg>