<?xml version="1.0" encoding="UTF-8"?>
<svg id="Layer_2" data-name="Layer 2" xmlns="http://www.w3.org/2000/svg" viewBox="0 0 410.73 99.47">
  <defs>
    <style>
      .cls-1 {
        fill: #fff;
      }

      .cls-2 {
        fill: #d7f0fc;
      }

      .cls-3 {
        fill: #82161d;
      }

      .cls-4 {
        fill: none;
        stroke: #000;
        stroke-miterlimit: 10;
        stroke-width: .25px;
      }

      .cls-5 {
        fill: #231f20;
      }

      .cls-6 {
        fill: #25b34b;
      }
    </style>
  </defs>
  <g id="Layer_2-2" data-name="Layer 2">
    <g>
      <g>
        <g>
          <path class="cls-6" d="M98.9,49.74c0,15-6.72,28.45-17.33,37.46-5.41,4.6-11.83,8.06-18.88,9.97-4.13,1.12-8.48,1.73-12.97,1.73C22.58,98.9,.56,76.89,.56,49.74S22.58,.56,49.74,.56s49.17,22.01,49.17,49.17h0Z"/>
          <path class="cls-5" d="M49.74,99.47c-13.29,0-25.77-5.17-35.17-14.57C5.17,75.51,0,63.02,0,49.74S5.17,23.96,14.57,14.57C23.96,5.17,36.45,0,49.74,0s25.77,5.17,35.17,14.57c9.4,9.4,14.57,21.88,14.57,35.17,0,14.61-6.39,28.42-17.52,37.89-5.53,4.7-12.13,8.19-19.1,10.09-4.25,1.16-8.66,1.75-13.12,1.75ZM49.74,1.13C22.93,1.13,1.13,22.93,1.13,49.74s21.8,48.61,48.61,48.61c4.35,0,8.66-.58,12.82-1.71,6.81-1.86,13.26-5.26,18.66-9.86,10.89-9.26,17.12-22.76,17.12-37.03C98.34,22.93,76.53,1.13,49.74,1.13Z"/>
        </g>
        <path class="cls-2" d="M87.38,50.3h-.07c-.31-.04-.53-.32-.49-.62,.65-5.43,2.22-19.98,1.8-22.1-.61-3.05-7.39-3.49-9.95-3.4-.31,.02-.57-.23-.58-.55,0-.31,.23-.57,.55-.58,.41-.02,10.18-.3,11.1,4.3,.55,2.73-1.69,21.66-1.79,22.46-.03,.29-.28,.5-.56,.5h0Z"/>
        <path class="cls-2" d="M34.97,63.16c-.14,0-.28-.05-.39-.16-.43-.41-10.58-9.96-12.35-12.04-2-2.36,3.91-8.34,5.12-9.51,.23-.22,.58-.21,.8,0,.22,.23,.21,.58,0,.8-2.61,2.54-6.02,6.84-5.05,7.98,1.72,2.03,12.16,11.85,12.27,11.95,.23,.21,.23,.57,.02,.8-.11,.12-.26,.18-.41,.18h0Z"/>
        <path class="cls-5" d="M78.26,76.89l3.32,10.3c-5.41,4.6-11.83,8.06-18.88,9.97-3.42-6.43-8.45-25.19-8.45-25.19l.13,9.56s-2.18-6.42-11.19-17.34c-9.01-10.92-15.07-32.13-13.65-35.47,1.42-3.34,3.32-.23,3.32-.23,3.52,11.97,7.35,17.1,7.85,16.9,.5-.2-3.42-10.96-6.34-18.31-2.92-7.35-2.41-11.37,.59-11.27,3.01,.1,9.47,22.54,10.37,24.95,.9,2.42,2.21,1.07,2.21,1.07,0,0-7.95-19.47-9.36-27.72s3.92-4.43,4.93-3.72c1.01,.7,11.47,28.27,11.47,28.27l1.21-.41s-8.25-21.73-9.65-27.06c-1.41-5.33,3.41-4.05,3.97-3.42,.57,.64,10.81,23.64,10.81,23.64,0,0,11.65,18.29,13.79,18.3,2.14,0,1.96-4.68,1.96-4.68-2-6.25-.71-13.8,1.98-14.51,2.69-.71,4.39,8.14,5.3,16.4,.91,8.26-4.09,15.65-4.09,15.65-6.35,14.33-4.02,24.54-4.02,24.54l2.4-10.24h0Z"/>
        <path class="cls-1" d="M76.55,47.07s-14.57-15.01-15.42-15.32c0,0-1.51,6.66-4.42,12.89s-7.35,19.52-4.19,24.87c0,0,1.56,.66,1.56-2.63s1.04-8.52,1.82-8.52-1.92,11.37-1.36,14.72c.56,3.35,2.88,2.46,3.06-.62,.17-2.96,1.36-9.16,1.56-11.99,.02-.19,.19-.34,.37-.32h0c.2,.02,.35,.21,.31,.41-.44,2.32-2.73,14.59-1.27,16.92,1.61,2.58,3.28-.86,3.92-6.66s1.29-10.53,1.93-10.43-2.85,17.53-.91,17.52c1.93,0,3.17-5.27,3.49-9.14,.32-3.87,3.88-15.74,5.89-15.74,2.01,0,2.11,1.92,1.71,4.53s3.15,6.74,4.04,3.82,.47-11.68-2.11-14.33h0Z"/>
        <path class="cls-3" d="M65.73,77.54c-6.57,0-13.62-2.09-20.67-6.15-6.52-3.76-10.7-7.82-10.87-7.99-.44-.44-.45-1.15-.02-1.59s1.15-.45,1.59-.02h0s4.18,4.06,10.47,7.68c5.74,3.3,14.5,6.93,23.66,5.51,.62-.09,1.19,.33,1.29,.94s-.33,1.19-.94,1.29c-1.47,.23-2.98,.34-4.51,.34h0Z"/>
        <path class="cls-3" d="M45.54,96.31c-1.36,0-2.68-.16-3.95-.48-3.24-.82-5.91-2.6-7.9-4.81-6.69-.53-12.26-3.95-16.19-9.98-3.2-4.9-4.16-9.74-4.2-9.94-.12-.61,.28-1.2,.89-1.33,.61-.12,1.2,.28,1.33,.89,.02,.09,.96,4.69,3.92,9.2,3.17,4.83,7.32,7.72,12.4,8.65-1.51-2.49-2.29-5.25-2.25-7.76,.08-4.01,2.21-6.85,5.73-7.6,3.15-.68,6.61,.83,9.03,3.91,2.37,3.03,3.02,6.62,1.68,9.37-.96,1.97-3.31,4.3-9.06,4.62,1.45,1.18,3.19,2.09,5.18,2.6,6.64,1.68,13.09-2.07,16.33-4.46,4.99-3.67,9.02-8.82,10.51-13.44l.16-.49,.48-.2s4.28-1.84,8.44-5.88c5.51-5.36,8.27-11.89,8.2-19.43,0-.62,.49-1.13,1.12-1.14h0c.62,0,1.12,.5,1.12,1.12,.09,10.21-4.81,17.12-8.94,21.12-3.67,3.55-7.31,5.46-8.59,6.07-1.74,4.92-5.97,10.28-11.17,14.08-4.76,3.49-9.69,5.31-14.26,5.31h.02Zm-10.79-7.49c.27,0,.52,.02,.8,.02,4.44,0,7.36-1.18,8.45-3.4,.94-1.93,.38-4.68-1.43-7-1.47-1.88-4.03-3.69-6.78-3.1-3.36,.72-3.91,3.72-3.95,5.44-.05,2.63,.98,5.58,2.92,8.03h0Z"/>
        <path class="cls-3" d="M31.57,39.34c0,.81-.5,1.52-1.18,1.97-2.91,1.89-4.41,.4-2.26-2.35,.5-.64,1.17-1.08,1.98-1.08s1.47,.66,1.47,1.47h0Z"/>
        <path class="cls-3" d="M74.56,23.89c.36-.73,1.12-1.14,1.93-1.23,3.45-.41,4.13,1.61,.98,3.11-.73,.35-1.53,.44-2.25,.09s-1.02-1.24-.66-1.96h0Z"/>
      </g>
      <g>
        <g>
          <path class="cls-5" d="M111.06,8.71c.04-.39,.44-.7,.79-.7h.7c.21,0,.61,.18,.74,.44l10.13,18.86h.09l10.13-18.86c.13-.26,.53-.44,.74-.44h.7c.35,0,.74,.3,.79,.7l4.93,29.33c.09,.57-.3,.97-.83,.97h-5.15c-.39,0-.79-.35-.83-.7l-1.96-13.48h-.09l-7.33,14.14c-.13,.26-.53,.48-.74,.48h-.79c-.26,0-.61-.21-.74-.48l-7.38-14.14h-.09l-1.92,13.48c-.04,.35-.39,.7-.83,.7h-5.15c-.53,0-.92-.39-.83-.97l4.93-29.33h-.03Z"/>
          <path class="cls-5" d="M143.62,37.3c2.54-3.32,8.99-12.09,11.56-16.02,.57-.87,1.13-2.1,1.13-3.32,0-1.66-1.39-3.14-3.84-3.14-1.79,0-3.4,1.27-4.23,2.18-.35,.35-.88,.35-1.22,0l-2.66-2.71c-.3-.26-.35-.79-.04-1.13,0,0,3.54-4.28,8.73-4.28,6.24,0,9.91,3.97,9.91,8.81,0,2.31-.65,3.63-1.71,5.67-1.39,2.49-4.97,7.16-7.03,10.04h7.68c.44,0,.83,.39,.83,.83v3.93c0,.44-.39,.83-.83,.83h-17.46c-.48,0-.83-.39-.83-.83v-.88h0Z"/>
          <path class="cls-5" d="M166.06,37.3c2.54-3.32,8.99-12.09,11.56-16.02,.57-.87,1.13-2.1,1.13-3.32,0-1.66-1.39-3.14-3.84-3.14-1.79,0-3.4,1.27-4.23,2.18-.35,.35-.88,.35-1.22,0l-2.66-2.71c-.3-.26-.35-.79-.04-1.13,0,0,3.54-4.28,8.73-4.28,6.24,0,9.91,3.97,9.91,8.81,0,2.31-.65,3.63-1.71,5.67-1.39,2.49-4.97,7.16-7.03,10.04h7.68c.44,0,.83,.39,.83,.83v3.93c0,.44-.39,.83-.83,.83h-17.46c-.48,0-.83-.39-.83-.83v-.88h0Z"/>
          <path class="cls-5" d="M200.89,9.28c0-.44,.35-.83,.79-.83h10.65c8.42,0,15.32,6.85,15.32,15.23s-6.89,15.32-15.32,15.32h-10.65c-.44,0-.79-.39-.79-.83V9.28h0Zm11,23.26c4.93,0,8.51-3.88,8.51-8.86s-3.58-8.81-8.51-8.81h-4.19v17.68s4.19,0,4.19,0Z"/>
          <path class="cls-5" d="M246.43,8.01c8.73,0,15.72,7.03,15.72,15.76s-6.98,15.67-15.72,15.67-15.67-6.94-15.67-15.67,6.94-15.76,15.67-15.76Zm0,24.44c4.8,0,8.73-3.93,8.73-8.69s-3.93-8.78-8.73-8.78-8.69,3.97-8.69,8.78,3.93,8.69,8.69,8.69Z"/>
          <path class="cls-5" d="M280.95,8.01c4.37,0,7.6,1.36,10.56,4.06,.39,.35,.39,.88,.04,1.22l-3.4,3.54c-.3,.3-.79,.3-1.09,0-1.62-1.44-3.75-2.22-5.89-2.22-4.93,0-8.55,4.1-8.55,8.99s3.67,8.86,8.6,8.86c2.05,0,4.28-.74,5.85-2.1,.3-.26,.88-.26,1.13,.04l3.4,3.63c.3,.3,.26,.88-.04,1.18-2.96,2.88-6.72,4.23-10.61,4.23-8.73,0-15.76-6.94-15.76-15.67s7.03-15.76,15.76-15.76Z"/>
          <path class="cls-5" d="M300.73,14.86h-6.24c-.48,0-.83-.39-.83-.83v-4.76c0-.44,.35-.83,.83-.83h19.38c.48,0,.83,.39,.83,.83v4.76c0,.44-.35,.83-.83,.83h-6.24v23.31c0,.44-.39,.83-.83,.83h-5.24c-.44,0-.83-.39-.83-.83V14.86h0Z"/>
          <path class="cls-5" d="M332.33,8.01c8.73,0,15.72,7.03,15.72,15.76s-6.98,15.67-15.72,15.67-15.67-6.94-15.67-15.67,6.94-15.76,15.67-15.76Zm0,24.44c4.8,0,8.73-3.93,8.73-8.69s-3.93-8.78-8.73-8.78-8.69,3.97-8.69,8.78,3.93,8.69,8.69,8.69Z"/>
          <path class="cls-5" d="M353.33,9.28c0-.44,.35-.83,.83-.83h13.06c5.24,0,9.52,4.23,9.52,9.43,0,4.02-2.66,7.24-6.46,8.78l5.98,11.09c.3,.57,0,1.27-.74,1.27h-5.8c-.35,0-.61-.21-.7-.39l-5.8-11.56h-3.01v11.13c0,.44-.39,.83-.83,.83h-5.2c-.48,0-.83-.39-.83-.83V9.28Zm13.31,12.23c1.78,0,3.32-1.66,3.32-3.49s-1.53-3.32-3.32-3.32h-6.46v6.81h6.46Z"/>
          <path class="cls-5" d="M380.83,34.85l2.05-3.63c.35-.57,1.18-.48,1.48-.26,.18,.09,3.32,2.4,6.2,2.4,1.75,0,3.01-1.09,3.01-2.62,0-1.83-1.53-3.23-4.49-4.41-3.75-1.48-8.46-4.41-8.46-9.64,0-4.32,3.36-8.69,10.08-8.69,4.54,0,8.03,2.31,9.34,3.28,.53,.3,.44,1.09,.26,1.39l-2.22,3.36c-.3,.48-1.09,.88-1.48,.57-.39-.21-3.58-2.62-6.24-2.62-1.57,0-2.75,1.04-2.75,2.22,0,1.62,1.31,2.84,4.76,4.23,3.4,1.36,8.81,4.02,8.81,9.96,0,4.49-3.88,9.04-10.31,9.04-5.67,0-8.81-2.36-9.82-3.36-.44-.44-.57-.61-.21-1.22h0Z"/>
          <path class="cls-5" d="M405.06,20.15c-.3-.35-.21-.74,.04-.96,.48-.35,3.05-2.27,3.1-5.24,0,0-.74,.3-1.75,.3-1.71,0-3.14-1.36-3.14-3.1s1.44-3.14,3.45-3.14c1.66,0,3.97,1.27,3.97,5.06,0,4.58-3.05,6.98-4.06,7.81-.3,.21-.61,.3-.97-.09l-.65-.65Z"/>
        </g>
        <g>
          <path class="cls-5" d="M106.4,47.2c0-.44,.35-.83,.83-.83h18.07c.48,0,.83,.39,.83,.83v4.76c0,.44-.35,.83-.83,.83h-12.09v6.29h9.96c.44,0,.83,.39,.83,.83v4.76c0,.44-.39,.83-.83,.83h-9.96v10.61c0,.44-.39,.83-.83,.83h-5.15c-.48,0-.83-.39-.83-.83v-28.9h0Z"/>
          <path class="cls-5" d="M146.61,45.93c8.73,0,15.72,7.03,15.72,15.76s-6.98,15.67-15.72,15.67-15.67-6.94-15.67-15.67,6.94-15.76,15.67-15.76Zm0,24.44c4.8,0,8.73-3.93,8.73-8.69s-3.93-8.78-8.73-8.78-8.69,3.97-8.69,8.78,3.93,8.69,8.69,8.69Z"/>
          <path class="cls-5" d="M169.35,47.2c0-.44,.39-.83,.83-.83h5.37c.48,0,.83,.39,.83,.83v17.68c0,3.05,2.27,5.5,5.37,5.5s5.46-2.45,5.46-5.5v-17.68c0-.44,.35-.83,.83-.83h5.37c.44,0,.83,.39,.83,.83v18.03c0,6.63-5.59,12.14-12.48,12.14s-12.39-5.5-12.39-12.14v-18.03h-.02Z"/>
          <path class="cls-5" d="M203.4,46.72c0-.44,.39-.79,.83-.79h1.09l17.41,16.76h.04v-15.49c0-.44,.35-.83,.83-.83h5.24c.44,0,.83,.39,.83,.83v29.38c0,.44-.39,.79-.83,.79h-.7c-.13,0-.48-.13-.57-.21l-17.24-17.33h-.04v16.28c0,.44-.35,.83-.83,.83h-5.2c-.44,0-.83-.39-.83-.83l-.04-29.38h0Z"/>
          <path class="cls-5" d="M239.37,47.2c0-.44,.35-.83,.79-.83h10.65c8.42,0,15.32,6.85,15.32,15.23s-6.89,15.32-15.32,15.32h-10.65c-.44,0-.79-.39-.79-.83v-28.9h0Zm11,23.27c4.93,0,8.51-3.88,8.51-8.86s-3.58-8.81-8.51-8.81h-4.19v17.68h4.19Z"/>
          <path class="cls-5" d="M269.4,75.79l13.66-29.38c.13-.26,.44-.48,.74-.48h.44c.3,0,.61,.21,.74,.48l13.66,29.38c.26,.57-.09,1.13-.74,1.13h-4.85c-.79,0-1.13-.26-1.53-1.09l-1.57-3.45h-11.88l-1.57,3.49c-.21,.53-.7,1.04-1.57,1.04h-4.8c-.65,0-1-.57-.74-1.13h0Zm17.94-9.33l-3.32-7.21h-.04l-3.28,7.21h6.63Z"/>
          <path class="cls-5" d="M306.77,52.79h-6.24c-.48,0-.83-.39-.83-.83v-4.76c0-.44,.35-.83,.83-.83h19.38c.48,0,.83,.39,.83,.83v4.76c0,.44-.35,.83-.83,.83h-6.24v23.31c0,.44-.39,.83-.83,.83h-5.24c-.44,0-.83-.39-.83-.83v-23.31h0Z"/>
          <path class="cls-5" d="M327.29,47.2c0-.44,.39-.83,.83-.83h5.24c.44,0,.83,.39,.83,.83v28.9c0,.44-.39,.83-.83,.83h-5.24c-.44,0-.83-.39-.83-.83,0,0,0-28.9,0-28.9Z"/>
          <path class="cls-5" d="M357.32,45.93c8.73,0,15.72,7.03,15.72,15.76s-6.98,15.67-15.72,15.67-15.67-6.94-15.67-15.67,6.94-15.76,15.67-15.76Zm0,24.44c4.8,0,8.73-3.93,8.73-8.69s-3.93-8.78-8.73-8.78-8.69,3.97-8.69,8.78,3.93,8.69,8.69,8.69Z"/>
          <path class="cls-5" d="M380.46,46.72c0-.44,.39-.79,.83-.79h1.09l17.41,16.76h.04v-15.49c0-.44,.35-.83,.83-.83h5.24c.44,0,.83,.39,.83,.83v29.38c0,.44-.39,.79-.83,.79h-.7c-.13,0-.48-.13-.57-.21l-17.24-17.33h-.04v16.28c0,.44-.35,.83-.83,.83h-5.2c-.44,0-.83-.39-.83-.83l-.04-29.38h0Z"/>
        </g>
        <g>
          <path d="M106.84,92.57c.58,.3,1.46,.6,2.37,.6,.98,0,1.5-.42,1.5-1.05s-.45-.95-1.59-1.36c-1.57-.56-2.6-1.45-2.6-2.86,0-1.65,1.35-2.92,3.58-2.92,1.07,0,1.85,.23,2.42,.49l-.48,1.77c-.38-.19-1.05-.46-1.98-.46s-1.38,.43-1.38,.93c0,.62,.53,.89,1.76,1.36,1.67,.63,2.46,1.52,2.46,2.89,0,1.62-1.22,3-3.82,3-1.08,0-2.15-.29-2.68-.59l.44-1.81Z"/>
          <path d="M116.49,85.15v5.57c0,1.67,.62,2.51,1.71,2.51s1.74-.8,1.74-2.51v-5.57h2.14v5.43c0,2.99-1.48,4.41-3.95,4.41s-3.79-1.35-3.79-4.44v-5.4h2.15Z"/>
          <path d="M125.76,86.99h-2.54v-1.84h7.28v1.84h-2.59v7.84h-2.15v-7.84Z"/>
          <path d="M132.82,92.34l-.67,2.48h-2.22l2.89-9.68h2.81l2.94,9.68h-2.3l-.73-2.48h-2.71Zm2.4-1.64l-.59-2.05c-.17-.57-.34-1.29-.48-1.87h-.03c-.14,.57-.28,1.31-.44,1.87l-.56,2.05h2.09Z"/>
          <path d="M141.98,85.15v9.68h-2.15v-9.68h2.15Z"/>
          <path d="M143.83,94.83v-9.68h2.5l1.97,3.55c.56,1.02,1.12,2.23,1.55,3.32h.04c-.14-1.28-.18-2.59-.18-4.04v-2.83h1.97v9.68h-2.25l-2.02-3.73c-.56-1.03-1.18-2.28-1.64-3.42h-.04c.06,1.29,.08,2.66,.08,4.24v2.92h-1.97Z"/>
          <path d="M155.73,92.34l-.67,2.48h-2.22l2.89-9.68h2.81l2.94,9.68h-2.3l-.73-2.48h-2.71Zm2.4-1.64l-.59-2.05c-.17-.57-.34-1.29-.48-1.87h-.03c-.14,.57-.28,1.31-.44,1.87l-.56,2.05h2.09Z"/>
          <path d="M162.74,85.28c.56-.11,1.7-.2,2.77-.2,1.31,0,2.11,.13,2.8,.55,.66,.36,1.14,1.02,1.14,1.9s-.49,1.67-1.56,2.07v.03c1.08,.3,1.88,1.13,1.88,2.38,0,.88-.39,1.57-.98,2.05-.69,.56-1.84,.88-3.72,.88-1.05,0-1.84-.07-2.32-.14v-9.51Zm2.12,3.71h.7c1.12,0,1.73-.47,1.73-1.19s-.55-1.12-1.52-1.12c-.46,0-.73,.03-.91,.06v2.25Zm0,4.29c.21,.03,.46,.03,.83,.03,.97,0,1.83-.37,1.83-1.39s-.86-1.36-1.93-1.36h-.73v2.73Z"/>
          <path d="M171.22,85.15h2.15v7.84h3.77v1.84h-5.92v-9.68Z"/>
          <path d="M184.03,90.73h-3.48v2.3h3.89v1.8h-6.04v-9.68h5.85v1.8h-3.7v2.01h3.48v1.78Z"/>
          <path d="M195.69,94.55c-.39,.2-1.28,.42-2.43,.42-3.27,0-4.96-2.08-4.96-4.84,0-3.3,2.3-5.14,5.17-5.14,1.11,0,1.95,.23,2.33,.43l-.44,1.74c-.44-.19-1.04-.36-1.8-.36-1.7,0-3.02,1.05-3.02,3.2,0,1.94,1.12,3.16,3.04,3.16,.65,0,1.36-.14,1.78-.32l.32,1.71Z"/>
          <path d="M205.34,89.89c0,3.17-1.88,5.1-4.65,5.1s-4.45-2.17-4.45-4.93c0-2.9,1.81-5.07,4.61-5.07s4.5,2.23,4.5,4.9Zm-6.84,.13c0,1.9,.87,3.23,2.3,3.23s2.28-1.41,2.28-3.29c0-1.74-.82-3.23-2.29-3.23s-2.29,1.41-2.29,3.29Z"/>
          <path d="M214.75,91.12c-.04-1.16-.08-2.57-.08-3.98h-.04c-.29,1.23-.69,2.61-1.05,3.75l-1.15,3.78h-1.67l-1.01-3.75c-.31-1.13-.63-2.51-.86-3.78h-.03c-.06,1.31-.1,2.8-.17,4.01l-.17,3.68h-1.98l.6-9.68h2.85l.93,3.23c.3,1.12,.59,2.33,.8,3.46h.04c.27-1.12,.59-2.4,.9-3.48l1.01-3.22h2.8l.52,9.68h-2.09l-.14-3.71Z"/>
          <path d="M226.63,91.12c-.04-1.16-.08-2.57-.08-3.98h-.04c-.3,1.23-.69,2.61-1.05,3.75l-1.15,3.78h-1.67l-1.01-3.75c-.31-1.13-.63-2.51-.86-3.78h-.03c-.06,1.31-.1,2.8-.17,4.01l-.17,3.68h-1.98l.6-9.68h2.85l.93,3.23c.29,1.12,.59,2.33,.8,3.46h.04c.27-1.12,.59-2.4,.9-3.48l1.01-3.22h2.8l.52,9.68h-2.09l-.14-3.71Z"/>
          <path d="M232.64,85.15v5.57c0,1.67,.62,2.51,1.71,2.51s1.74-.8,1.74-2.51v-5.57h2.14v5.43c0,2.99-1.48,4.41-3.95,4.41s-3.79-1.35-3.79-4.44v-5.4h2.15Z"/>
          <path d="M240.08,94.83v-9.68h2.5l1.97,3.55c.56,1.02,1.12,2.23,1.55,3.32h.04c-.14-1.28-.18-2.59-.18-4.04v-2.83h1.97v9.68h-2.25l-2.02-3.73c-.56-1.03-1.18-2.28-1.64-3.42h-.04c.06,1.29,.08,2.66,.08,4.24v2.92h-1.97Z"/>
          <path d="M251.93,85.15v9.68h-2.15v-9.68h2.15Z"/>
          <path d="M255.6,86.99h-2.54v-1.84h7.28v1.84h-2.59v7.84h-2.15v-7.84Z"/>
          <path d="M263.76,94.83v-3.96l-2.99-5.72h2.45l.97,2.33c.29,.7,.49,1.22,.73,1.85h.03c.21-.6,.44-1.16,.72-1.85l.96-2.33h2.4l-3.12,5.64v4.04h-2.14Z"/>
          <path d="M274.41,94.83l-2.25-9.68h2.29l.72,3.99c.21,1.15,.41,2.4,.56,3.38h.03c.15-1.05,.38-2.21,.62-3.4l.8-3.96h2.28l.76,4.08c.21,1.13,.37,2.17,.51,3.25h.03c.14-1.08,.35-2.21,.55-3.36l.77-3.96h2.18l-2.45,9.68h-2.32l-.8-4.16c-.18-.98-.34-1.88-.45-2.99h-.03c-.17,1.09-.32,2.01-.55,2.99l-.9,4.16h-2.35Z"/>
          <path d="M290.99,90.73h-3.48v2.3h3.89v1.8h-6.04v-9.68h5.85v1.8h-3.7v2.01h3.48v1.78Z"/>
          <path d="M292.85,85.15h2.15v7.84h3.77v1.84h-5.92v-9.68Z"/>
          <path d="M300.03,85.15h5.79v1.8h-3.64v2.21h3.4v1.78h-3.4v3.89h-2.15v-9.68Z"/>
          <path d="M308.69,92.34l-.67,2.48h-2.22l2.89-9.68h2.81l2.94,9.68h-2.3l-.73-2.48h-2.71Zm2.4-1.64l-.59-2.05c-.17-.57-.34-1.29-.48-1.87h-.03c-.14,.57-.28,1.31-.44,1.87l-.56,2.05h2.09Z"/>
          <path d="M315.7,85.28c.69-.11,1.71-.2,2.85-.2,1.41,0,2.39,.22,3.06,.76,.56,.46,.87,1.13,.87,2.03,0,1.23-.86,2.08-1.67,2.38v.04c.66,.27,1.03,.92,1.26,1.81,.29,1.09,.59,2.35,.77,2.73h-2.19c-.16-.27-.38-1.06-.66-2.25-.25-1.21-.66-1.54-1.53-1.55h-.65v3.81h-2.12v-9.55Zm2.12,4.16h.84c1.07,0,1.7-.55,1.7-1.39,0-.89-.59-1.34-1.57-1.35-.52,0-.82,.04-.97,.07v2.67Z"/>
          <path d="M329.66,90.73h-3.48v2.3h3.89v1.8h-6.04v-9.68h5.85v1.8h-3.7v2.01h3.48v1.78Z"/>
          <path d="M345.68,90.73h-3.48v2.3h3.89v1.8h-6.04v-9.68h5.85v1.8h-3.7v2.01h3.48v1.78Z"/>
          <path d="M347.61,92.57c.58,.3,1.46,.6,2.38,.6,.98,0,1.5-.42,1.5-1.05s-.45-.95-1.59-1.36c-1.57-.56-2.6-1.45-2.6-2.86,0-1.65,1.35-2.92,3.58-2.92,1.07,0,1.85,.23,2.42,.49l-.48,1.77c-.38-.19-1.05-.46-1.98-.46s-1.38,.43-1.38,.93c0,.62,.54,.89,1.76,1.36,1.67,.63,2.46,1.52,2.46,2.89,0,1.62-1.22,3-3.82,3-1.08,0-2.15-.29-2.68-.59l.44-1.81Z"/>
          <path d="M356.95,86.99h-2.54v-1.84h7.28v1.84h-2.59v7.84h-2.15v-7.84Z"/>
          <path d="M362.82,85.28c.79-.13,1.81-.2,2.89-.2,1.8,0,2.96,.33,3.88,1.03,.98,.75,1.6,1.94,1.6,3.65,0,1.85-.66,3.13-1.57,3.92-1,.85-2.52,1.25-4.37,1.25-1.11,0-1.9-.07-2.43-.14v-9.51Zm2.15,7.9c.18,.04,.48,.04,.75,.04,1.94,.01,3.2-1.08,3.2-3.39,.01-2.01-1.14-3.07-2.98-3.07-.48,0-.79,.04-.97,.09v6.33Z"/>
          <path d="M372.37,89.04c0-.78,.52-1.32,1.26-1.32s1.24,.53,1.25,1.32c0,.75-.51,1.31-1.26,1.31s-1.25-.56-1.25-1.31Zm0,4.64c0-.76,.52-1.32,1.26-1.32s1.24,.55,1.25,1.32c0,.75-.51,1.31-1.26,1.31s-1.25-.56-1.25-1.31Z"/>
          <path d="M378.75,94.83v-1.32l1.18-1.09c2-1.82,2.96-2.87,2.99-3.96,0-.76-.45-1.36-1.5-1.36-.79,0-1.47,.4-1.95,.78l-.6-1.57c.69-.53,1.76-.96,2.99-.96,2.07,0,3.2,1.24,3.2,2.93,0,1.57-1.11,2.81-2.43,4.02l-.84,.72v.03h3.44v1.8h-6.48Z"/>
          <path d="M393.29,90.12c0,2.89-1.14,4.87-3.47,4.87s-3.4-2.17-3.41-4.81c0-2.7,1.12-4.84,3.48-4.84s3.4,2.23,3.4,4.78Zm-4.74,.06c-.01,2.14,.49,3.16,1.32,3.16s1.28-1.06,1.28-3.19-.44-3.16-1.29-3.16c-.79,0-1.32,1.02-1.31,3.19Z"/>
          <path d="M394.34,94.83v-1.32l1.18-1.09c2-1.82,2.97-2.87,2.99-3.96,0-.76-.45-1.36-1.5-1.36-.79,0-1.48,.4-1.95,.78l-.6-1.57c.69-.53,1.76-.96,2.99-.96,2.07,0,3.2,1.24,3.2,2.93,0,1.57-1.11,2.81-2.43,4.02l-.84,.72v.03h3.44v1.8h-6.48Z"/>
          <path d="M402.51,92.69c.38,.2,1.25,.57,2.12,.57,1.11,0,1.67-.55,1.67-1.25,0-.92-.9-1.34-1.84-1.34h-.87v-1.57h.83c.72-.01,1.63-.29,1.63-1.08,0-.56-.45-.98-1.35-.98-.74,0-1.53,.33-1.91,.56l-.44-1.58c.55-.36,1.64-.7,2.83-.7,1.95,0,3.04,1.05,3.04,2.33,0,.99-.55,1.77-1.67,2.17v.03c1.1,.2,1.98,1.05,1.98,2.27,0,1.65-1.42,2.86-3.74,2.86-1.18,0-2.18-.32-2.71-.66l.44-1.64Z"/>
        </g>
        <line class="cls-4" x1="335.11" y1="83.39" x2="335.11" y2="96.63"/>
      </g>
    </g>
  </g>
</svg>