<?xml version="1.0" encoding="UTF-8"?>
<svg id="Layer_2" data-name="Layer 2" xmlns="http://www.w3.org/2000/svg" viewBox="0 0 447.35 62.95">
  <defs>
    <style>
      .cls-1 {
        fill: #fff;
      }
    </style>
  </defs>
  <g id="Layer_1-2" data-name="Layer 1">
    <g>
      <path class="cls-1" d="M0,3.06H9.78V38.73H27.23v9.17H0V3.06Z"/>
      <path class="cls-1" d="M56.23,15.77h9.51V47.92h-9.51v-3.4c-1.6,1.5-3.22,2.57-4.83,3.24-1.62,.66-3.37,.99-5.26,.99-4.23,0-7.9-1.61-10.99-4.83-3.09-3.22-4.64-7.22-4.64-12.01s1.49-9.03,4.49-12.2c2.99-3.17,6.63-4.76,10.9-4.76,1.97,0,3.81,.36,5.54,1.09,1.73,.73,3.32,1.82,4.79,3.28v-3.55Zm-8,7.61c-2.36,0-4.33,.77-5.89,2.29-1.56,1.53-2.34,3.49-2.34,5.89s.8,4.39,2.39,5.95c1.59,1.56,3.55,2.34,5.88,2.34s4.39-.77,5.97-2.29c1.58-1.53,2.37-3.54,2.37-6.02s-.79-4.4-2.37-5.9c-1.58-1.5-3.58-2.26-6-2.26Z"/>
      <path class="cls-1" d="M120.75,15.77h9.51V47.92h-9.51v-3.4c-1.61,1.5-3.22,2.57-4.83,3.24-1.62,.66-3.37,.99-5.25,.99-4.23,0-7.9-1.61-10.99-4.83-3.09-3.22-4.64-7.22-4.64-12.01s1.5-9.03,4.49-12.2c2.99-3.17,6.63-4.76,10.9-4.76,1.97,0,3.81,.36,5.54,1.09,1.73,.73,3.32,1.82,4.79,3.28v-3.55Zm-8,7.61c-2.36,0-4.33,.77-5.89,2.29-1.56,1.53-2.34,3.49-2.34,5.89s.79,4.39,2.39,5.95c1.59,1.56,3.55,2.34,5.88,2.34s4.39-.77,5.97-2.29c1.58-1.53,2.37-3.54,2.37-6.02s-.79-4.4-2.37-5.9c-1.58-1.5-3.58-2.26-6-2.26Z"/>
      <path class="cls-1" d="M177.72,62.95c-10.23,0-15.27-4.44-15.27-4.44l4.44-7.22s3.91,3.83,10.08,3.31c11.24-.96,10.74-10.56,10.74-10.56-1.5,1.44-3.08,2.48-4.72,3.11-1.65,.63-3.51,.95-5.6,.95-4.57,0-8.42-1.58-11.57-4.74-3.15-3.16-4.72-7.16-4.72-12.01,0-5.18,1.67-9.35,5.01-12.49,3.02-2.84,6.63-4.26,10.83-4.26,1.96,0,3.81,.35,5.55,1.04,1.74,.69,2.58,1.79,4.27,3.4v-3.6h9.48v27.98c0,14.23-8.27,19.54-18.5,19.54Zm1.14-39.58c-2.36,0-4.31,.76-5.85,2.28-1.54,1.52-2.31,3.43-2.31,5.73s.79,4.35,2.36,5.87c1.57,1.53,3.55,2.29,5.93,2.29s4.24-.75,5.75-2.24c1.51-1.5,2.27-3.45,2.27-5.88s-.76-4.33-2.28-5.82c-1.52-1.49-3.48-2.24-5.88-2.24Z"/>
      <path class="cls-1" d="M206.79,43.93c-3.15-3.22-4.73-7.24-4.73-12.08s1.57-9.08,4.71-12.35c3.14-3.28,7.08-4.91,11.83-4.91,5.03,0,9.13,1.64,12.28,4.91,3.15,3.27,4.73,7.6,4.73,12.97l-.03,1.55h-24.02s.22,6.35,8.26,6.73c6.17,.3,8.61-3.46,8.61-3.46l5.45,5.49s-4.74,5.96-14.21,5.96c-8.5,.06-12.89-4.82-12.89-4.82Zm19.34-15.58c-.44-1.78-1.3-3.23-2.59-4.35-1.29-1.12-2.78-1.67-4.48-1.67-1.85,0-3.47,.63-4.86,1.88-.87,.78-1.68,2.16-2.43,4.14h14.36Z"/>
      <path class="cls-1" d="M304.71,14.59c3.23,0,6.27,.77,9.11,2.3,2.84,1.53,5.06,3.61,6.65,6.24,1.59,2.63,2.39,5.47,2.39,8.51s-.8,5.93-2.41,8.6c-1.6,2.67-3.79,4.75-6.55,6.25-2.77,1.5-5.82,2.25-9.15,2.25-4.92,0-9.1-1.66-12.57-4.97-3.47-3.32-5.21-7.34-5.21-12.08,0-5.08,1.96-9.31,5.88-12.69,3.44-2.95,7.39-4.42,11.86-4.42Zm.15,8.65c-2.39,0-4.38,.79-5.97,2.37-1.59,1.58-2.38,3.6-2.38,6.06s.78,4.59,2.35,6.16c1.57,1.57,3.57,2.36,5.98,2.36s4.41-.79,6.02-2.38c1.6-1.59,2.4-3.63,2.4-6.13s-.79-4.53-2.36-6.09c-1.57-1.56-3.58-2.34-6.03-2.34Z"/>
      <path class="cls-1" d="M328.62,1.93h9.74V47.9h-9.74V1.93Z"/>
      <path class="cls-1" d="M369.49,26.39s-2-3.26-6.97-3.26-8.37,3.22-8.67,7.75c-.3,4.48,2.01,8.84,8.07,9.19,5.66,.33,7.7-3.33,7.7-3.33l5.87,5.52c-3.33,4.53-7.79,6.48-13.86,6.48-5.46,0-9.74-1.69-12.83-5.08-3.1-3.39-4.64-7.36-4.64-11.9,0-3.15,.75-6.05,2.25-8.7,1.5-2.65,3.6-4.73,6.29-6.25,2.69-1.51,5.7-2.27,9.03-2.27,3.08,0,5.85,.64,8.3,1.93,2.02,1.06,3.73,2.48,5.15,4.28l-5.71,5.65Z"/>
      <path class="cls-1" d="M385.86,0c1.46,0,2.71,.53,3.75,1.58,1.04,1.06,1.56,2.34,1.56,3.84s-.51,2.75-1.54,3.79c-1.04,1.05-2.27,1.57-3.71,1.57s-2.74-.54-3.79-1.6c-1.04-1.07-1.57-2.36-1.57-3.89s.52-2.71,1.55-3.75c1.04-1.04,2.28-1.55,3.74-1.55Zm-4.59,15.31h9.48V47.9h-9.48V15.31Z"/>
      <path class="cls-1" d="M92.74,1.2v7.82s-7.52-1.95-7.52,4.14v2.56h6.85v7.6h-6.85v24.59h-9.33V23.38h-4.66v-7.9h4.66s-.3-3.2,.53-6.54c1.09-4.44,4.49-9.21,16.32-7.75Z"/>
      <path class="cls-1" d="M137.78,15.56h9.33v3.99s3.31-6.13,11.51-4.61v9.04s-11.36-2.02-11.36,6.99v16.92h-9.48V15.56Z"/>
      <polygon class="cls-1" points="243.37 3.08 253.15 3.08 253.15 20.45 271.12 20.45 271.12 3.08 281.05 3.08 281.05 47.9 271.12 47.9 271.12 29.25 253.15 29.25 253.15 47.9 243.37 47.9 243.37 3.08"/>
      <path class="cls-1" d="M398.39,15.42V47.9h9.6V28.87s.72-5.74,5.65-5.74,4.4,6.28,4.4,6.28v18.49h9.6V29.14s.54-6.01,5.65-6.01,4.66,6.19,4.66,6.19v18.58h9.41V26.36s-.44-11.77-11.2-11.77c-8.25,.02-10.67,5.31-10.67,5.31,0,0-2.33-5.31-8.88-5.31s-8.52,4.86-8.52,4.86v-4.04h-9.69Z"/>
    </g>
  </g>
</svg>